<mxfile host="app.diagrams.net" agent="Mozilla/5.0 (Macintosh; Intel Mac OS X 10_15_7) AppleWebKit/537.36 (KHTML, like Gecko) Chrome/129.0.0.0 Safari/537.36 Edg/129.0.0.0" version="26.0.5">
  <diagram name="Page-1" id="NUBxwsJxYckVUcK_FwWz">
    <mxGraphModel dx="8784" dy="5484" grid="1" gridSize="10" guides="1" tooltips="1" connect="1" arrows="1" fold="1" page="1" pageScale="1" pageWidth="1654" pageHeight="1169" math="0" shadow="0">
      <root>
        <mxCell id="0" />
        <mxCell id="1" parent="0" />
        <UserObject label="" plantUmlData="{&#xa;  &quot;data&quot;: &quot;@startuml Next Step Class Diagram\n\n&#39; Style configurations\nskinparam classAttributeIconSize 0\nskinparam monochrome true\nskinparam shadowing false\nskinparam linetype ortho\n\n&#39; Base User class\nabstract class User {\n    #UUID id\n    #String name\n    #String email\n    #String password\n    #String role\n    +UUID getId()\n    +String getName()\n    +String getEmail()\n    +String getRole()\n    +void setName(String name)\n    +void setEmail(String email)\n    +void setPassword(String password)\n    +void setRole(String role)\n    +boolean validatePassword(String inputPassword)\n}\n\n&#39; Student entity\nclass Student {\n    -String contact\n    -String school\n    -String district\n    -String stream\n    -Double zScore\n    -OLResults olResults\n    -ALResults alResults\n    -String university\n    -String course\n    -Double gpa\n    -StudentProfile profile\n    -List&lt;CareerPrediction&gt; predictions\n    +OLResults getOLResults()\n    +ALResults getALResults()\n    +Double getZScore()\n    +StudentProfile getProfile()\n    +List&lt;CareerPrediction&gt; getPredictions()\n    +void addPrediction(CareerPrediction prediction)\n}\n\n&#39; StudentProfile aggregation\nclass StudentProfile {\n    -List&lt;String&gt; interests\n    -List&lt;String&gt; skills\n    -List&lt;String&gt; strengths\n    +void addInterest(String interest)\n    +void addSkill(String skill)\n    +void addStrength(String strength)\n    +List&lt;String&gt; getInterests()\n    +List&lt;String&gt; getSkills()\n    +List&lt;String&gt; getStrengths()\n}\n\n&#39; OLResults aggregation\nclass OLResults {\n    -Map&lt;String, String&gt; results\n    +void addResult(String subject, String grade)\n    +void removeResult(String subject)\n    +Map&lt;String, String&gt; getResults()\n    +boolean validateResults(Map&lt;String, String&gt; results)\n}\n\n&#39; ALResults aggregation\nclass ALResults {\n    -Map&lt;String, String&gt; results\n    +void addResult(String subject, String grade)\n    +void removeResult(String subject)\n    +Map&lt;String, String&gt; getResults()\n    +boolean validateResults(Map&lt;String, String&gt; results)\n}\n\n&#39; Institution entity\nclass Institution {\n    -String type\n    -String website\n    -String location\n    -ContactInfo contactInfo\n    -List&lt;Course&gt; courses\n    +List&lt;Course&gt; getCourses()\n    +String getType()\n    +ContactInfo getContactInfo()\n    +void addCourse(Course course)\n    +void removeCourse(Course course)\n}\n\n&#39; ContactInfo aggregation\nclass ContactInfo {\n    -Map&lt;String, String&gt; info\n    +void addContact(String type, String value)\n    +void removeContact(String type)\n    +Map&lt;String, String&gt; getInfo()\n    +boolean validateInfo(Map&lt;String, String&gt; info)\n}\n\n&#39; Course entity\nclass Course {\n    -UUID id\n    -String name\n    -String description\n    -String duration\n    -MinimumGrades minimumGrades\n    -Double minimumZScore\n    -List&lt;Institution&gt; offeredBy\n    -RelatedCareers relatedCareers\n    +Double getMinimumZScore()\n    +List&lt;Institution&gt; getOfferedBy()\n    +MinimumGrades getMinimumGrades()\n    +RelatedCareers getRelatedCareers()\n    +void addInstitution(Institution institution)\n    +void removeInstitution(Institution institution)\n}\n\n&#39; MinimumGrades aggregation\nclass MinimumGrades {\n    -Map&lt;String, String&gt; grades\n    +void addGrade(String subject, String grade)\n    +void removeGrade(String subject)\n    +Map&lt;String, String&gt; getGrades()\n    +boolean validateGrades(Map&lt;String, String&gt; grades)\n}\n\n&#39; RelatedCareers aggregation\nclass RelatedCareers {\n    -List&lt;String&gt; careers\n    +void addCareer(String career)\n    +void removeCareer(String career)\n    +List&lt;String&gt; getCareers()\n}\n\n&#39; Career entity\nclass Career {\n    -String code\n    -String title\n    -String description\n    -String category\n    -RequiredSkills requiredSkills\n    -RelatedCourses relatedCourses\n    -ExternalLinks externalLinks\n    +String getCode()\n    +RequiredSkills getRequiredSkills()\n    +RelatedCourses getRelatedCourses()\n    +ExternalLinks getExternalLinks()\n}\n\n&#39; RequiredSkills aggregation\nclass RequiredSkills {\n    -List&lt;String&gt; skills\n    +void addSkill(String skill)\n    +void removeSkill(String skill)\n    +List&lt;String&gt; getSkills()\n}\n\n&#39; RelatedCourses aggregation\nclass RelatedCourses {\n    -List&lt;String&gt; courses\n    +void addCourse(String course)\n    +void removeCourse(String course)\n    +List&lt;String&gt; getCourses()\n}\n\n&#39; ExternalLinks aggregation\nclass ExternalLinks {\n    -Map&lt;String, String&gt; links\n    +void addLink(String name, String url)\n    +void removeLink(String name)\n    +Map&lt;String, String&gt; getLinks()\n    +boolean validateLinks(Map&lt;String, String&gt; links)\n}\n\n&#39; CareerPrediction value object\nclass CareerPrediction &lt;&lt;ValueObject&gt;&gt; {\n    -String careerPath\n    -Double probability\n    -LocalDateTime predictedAt\n    +Double getProbability()\n    +LocalDateTime getPredictedAt()\n    +void setCareerPath(String careerPath)\n    +void setProbability(Double probability)\n    +boolean validateProbability(Double probability)\n}\n\n&#39; Relationships\nUser &lt;|-- Student\nUser &lt;|-- Institution\nStudent \&quot;1\&quot; *-- \&quot;many\&quot; CareerPrediction\nStudent \&quot;1\&quot; *-- \&quot;1\&quot; StudentProfile\nStudent \&quot;1\&quot; *-- \&quot;1\&quot; OLResults\nStudent \&quot;1\&quot; *-- \&quot;1\&quot; ALResults\nStudent \&quot;many\&quot; -- \&quot;1\&quot; Institution : studies at &gt;\nInstitution \&quot;many\&quot; -- \&quot;many\&quot; Course : offers &gt;\nInstitution \&quot;1\&quot; *-- \&quot;1\&quot; ContactInfo\nCourse \&quot;many\&quot; -- \&quot;many\&quot; Career : leads to &gt;\nCourse \&quot;1\&quot; *-- \&quot;1\&quot; MinimumGrades\nCourse \&quot;1\&quot; *-- \&quot;1\&quot; RelatedCareers\nCareer \&quot;1\&quot; *-- \&quot;1\&quot; RequiredSkills\nCareer \&quot;1\&quot; *-- \&quot;1\&quot; RelatedCourses\nCareer \&quot;1\&quot; *-- \&quot;1\&quot; ExternalLinks\n\n&#39; Notes\nnote right of User\n  Base class for all user types\n  with authentication details\nend note\n\nnote right of Student\n  Extends User with academic\n  and personal information\nend note\n\nnote bottom of Career\n  Represents possible career paths\n  with required skills and courses\nend note\n\n@enduml\n&quot;,&#xa;  &quot;format&quot;: &quot;svg&quot;&#xa;}" id="eJkWS1ouLvHtY5IzEbgl-5">
          <mxCell style="shape=image;noLabel=1;verticalAlign=top;aspect=fixed;imageAspect=0;image=data:image/svg+xml,PD94bWwgdmVyc2lvbj0iMS4wIiBlbmNvZGluZz0idXMtYXNjaWkiIHN0YW5kYWxvbmU9Im5vIj8+PHN2ZyB4bWxucz0iaHR0cDovL3d3dy53My5vcmcvMjAwMC9zdmciIHhtbG5zOnhsaW5rPSJodHRwOi8vd3d3LnczLm9yZy8xOTk5L3hsaW5rIiBjb250ZW50U3R5bGVUeXBlPSJ0ZXh0L2NzcyIgaGVpZ2h0PSIxNjgxcHgiIHByZXNlcnZlQXNwZWN0UmF0aW89Im5vbmUiIHN0eWxlPSJ3aWR0aDoyNzUycHg7aGVpZ2h0OjE2ODFweDtiYWNrZ3JvdW5kOiNGRkZGRkY7IiB2ZXJzaW9uPSIxLjEiIHZpZXdCb3g9IjAgMCAyNzUyIDE2ODEiIHdpZHRoPSIyNzUycHgiIHpvb21BbmRQYW49Im1hZ25pZnkiPjxkZWZzLz48Zz48IS0tY2xhc3MgVXNlci0tPjxnIGlkPSJlbGVtX1VzZXIiPjxyZWN0IGNvZGVMaW5lPSI4IiBmaWxsPSIjRjFGMUYxIiBoZWlnaHQ9IjI1Ny43ODEzIiBpZD0iVXNlciIgcng9IjIuNSIgcnk9IjIuNSIgc3R5bGU9InN0cm9rZTojMTgxODE4O3N0cm9rZS13aWR0aDowLjU7IiB3aWR0aD0iMzQ1IiB4PSIxMTAxLjUiIHk9IjciLz48ZWxsaXBzZSBjeD0iMTI1NS43NSIgY3k9IjIzIiBmaWxsPSIjQ0RDRENEIiByeD0iMTEiIHJ5PSIxMSIgc3R5bGU9InN0cm9rZTojMTgxODE4O3N0cm9rZS13aWR0aDoxLjA7Ii8+PHBhdGggZD0iTTEyNTIuMzEyNSwyMC42MjUgTDEyNTIuMzEyNSwyOC43NSBMMTI1NC4wNjI1LDI4Ljc1IFExMjU0LjA2MjUsMjguNzUgMTI1NC4wNjI1LDI0LjUgTDEyNTcuNjI1LDI0LjUgUTEyNTcuNjI1LDI0LjUgMTI1Ny42MjUsMjguNzUgTDEyNTkuMzc1LDI4Ljc1IEwxMjU5LjM3NSwyMC42MjUgTDEyNTcuNjI1LDIwLjYyNSBRMTI1Ny42MjUsMjAuNjI1IDEyNTcuNjI1LDIyLjc1IEwxMjU0LjA2MjUsMjIuNzUgUTEyNTQuMDYyNSwyMi43NSAxMjU0LjA2MjUsMjAuNjI1IEwxMjUyLjMxMjUsMjAuNjI1IFogTTEyNTMuMzc1LDIxLjMxMjUgTDEyNTUuMTI1LDIxLjMxMjUgUTEyNTUuMTI1LDIxLjMxMjUgMTI1NS4xMjUsMTguNSBMMTI1My4zNzUsMTguNSBRMTI1My4zNzUsMTguNSAxMjUzLjM3NSwyMS4zMTI1IFogTTEyNTguMzEyNSwyMS4zMTI1IFExMjU4LjMxMjUsMjEuMzEyNSAxMjU4LjMxMjUsMTguNSBMMTI1Ni41NjI1LDE4LjUgUTEyNTYuNTYyNSwxOC41IDEyNTYuNTYyNSwyMS4zMTI1IEwxMjU4LjMxMjUsMjEuMzEyNSBaIE0xMjU0LjQzNzUsMTkuMTg3NSBMMTI1Ny4yNSwxOS4xODc1IEwxMjU3LjI1LDE3LjQzNzUgTDEyNTQuNDM3NSwxNy40Mzc1IEwxMjU0LjQzNzUsMTkuMTg3NSBaICIgZmlsbD0iIzAwMDAwMCIvPjx0ZXh0IGZpbGw9IiMwMDAwMDAiIGZvbnQtZmFtaWx5PSJzYW5zLXNlcmlmIiBmb250LXNpemU9IjE0IiBmb250LXN0eWxlPSJpdGFsaWMiIGxlbmd0aEFkanVzdD0ic3BhY2luZyIgdGV4dExlbmd0aD0iMjgiIHg9IjEyNzYuMjUiIHk9IjI4Ljc0MjIiPlVzZXI8L3RleHQ+PGxpbmUgc3R5bGU9InN0cm9rZTojMTgxODE4O3N0cm9rZS13aWR0aDowLjU7IiB4MT0iMTEwMi41IiB4Mj0iMTQ0NS41IiB5MT0iMzkiIHkyPSIzOSIvPjx0ZXh0IGZpbGw9IiMwMDAwMDAiIGZvbnQtZmFtaWx5PSJzYW5zLXNlcmlmIiBmb250LXNpemU9IjE0IiBsZW5ndGhBZGp1c3Q9InNwYWNpbmciIHRleHRMZW5ndGg9IjU2IiB4PSIxMTA3LjUiIHk9IjU2LjIzNDQiPiNVVUlEIGlkPC90ZXh0Pjx0ZXh0IGZpbGw9IiMwMDAwMDAiIGZvbnQtZmFtaWx5PSJzYW5zLXNlcmlmIiBmb250LXNpemU9IjE0IiBsZW5ndGhBZGp1c3Q9InNwYWNpbmciIHRleHRMZW5ndGg9Ijg1IiB4PSIxMTA3LjUiIHk9IjcxLjIxODgiPiNTdHJpbmcgbmFtZTwvdGV4dD48dGV4dCBmaWxsPSIjMDAwMDAwIiBmb250LWZhbWlseT0ic2Fucy1zZXJpZiIgZm9udC1zaXplPSIxNCIgbGVuZ3RoQWRqdXN0PSJzcGFjaW5nIiB0ZXh0TGVuZ3RoPSI5MiIgeD0iMTEwNy41IiB5PSI4Ni4yMDMxIj4jU3RyaW5nIGVtYWlsPC90ZXh0Pjx0ZXh0IGZpbGw9IiMwMDAwMDAiIGZvbnQtZmFtaWx5PSJzYW5zLXNlcmlmIiBmb250LXNpemU9IjE0IiBsZW5ndGhBZGp1c3Q9InNwYWNpbmciIHRleHRMZW5ndGg9IjExMyIgeD0iMTEwNy41IiB5PSIxMDEuMTg3NSI+I1N0cmluZyBwYXNzd29yZDwvdGV4dD48dGV4dCBmaWxsPSIjMDAwMDAwIiBmb250LWZhbWlseT0ic2Fucy1zZXJpZiIgZm9udC1zaXplPSIxNCIgbGVuZ3RoQWRqdXN0PSJzcGFjaW5nIiB0ZXh0TGVuZ3RoPSI4NCIgeD0iMTEwNy41IiB5PSIxMTYuMTcxOSI+I1N0cmluZyByb2xlPC90ZXh0PjxsaW5lIHN0eWxlPSJzdHJva2U6IzE4MTgxODtzdHJva2Utd2lkdGg6MC41OyIgeDE9IjExMDIuNSIgeDI9IjE0NDUuNSIgeTE9IjEyMS45MjE5IiB5Mj0iMTIxLjkyMTkiLz48dGV4dCBmaWxsPSIjMDAwMDAwIiBmb250LWZhbWlseT0ic2Fucy1zZXJpZiIgZm9udC1zaXplPSIxNCIgbGVuZ3RoQWRqdXN0PSJzcGFjaW5nIiB0ZXh0TGVuZ3RoPSI5MyIgeD0iMTEwNy41IiB5PSIxMzkuMTU2MyI+K1VVSUQgZ2V0SWQoKTwvdGV4dD48dGV4dCBmaWxsPSIjMDAwMDAwIiBmb250LWZhbWlseT0ic2Fucy1zZXJpZiIgZm9udC1zaXplPSIxNCIgbGVuZ3RoQWRqdXN0PSJzcGFjaW5nIiB0ZXh0TGVuZ3RoPSIxMjIiIHg9IjExMDcuNSIgeT0iMTU0LjE0MDYiPitTdHJpbmcgZ2V0TmFtZSgpPC90ZXh0Pjx0ZXh0IGZpbGw9IiMwMDAwMDAiIGZvbnQtZmFtaWx5PSJzYW5zLXNlcmlmIiBmb250LXNpemU9IjE0IiBsZW5ndGhBZGp1c3Q9InNwYWNpbmciIHRleHRMZW5ndGg9IjEyOSIgeD0iMTEwNy41IiB5PSIxNjkuMTI1Ij4rU3RyaW5nIGdldEVtYWlsKCk8L3RleHQ+PHRleHQgZmlsbD0iIzAwMDAwMCIgZm9udC1mYW1pbHk9InNhbnMtc2VyaWYiIGZvbnQtc2l6ZT0iMTQiIGxlbmd0aEFkanVzdD0ic3BhY2luZyIgdGV4dExlbmd0aD0iMTIxIiB4PSIxMTA3LjUiIHk9IjE4NC4xMDk0Ij4rU3RyaW5nIGdldFJvbGUoKTwvdGV4dD48dGV4dCBmaWxsPSIjMDAwMDAwIiBmb250LWZhbWlseT0ic2Fucy1zZXJpZiIgZm9udC1zaXplPSIxNCIgbGVuZ3RoQWRqdXN0PSJzcGFjaW5nIiB0ZXh0TGVuZ3RoPSIxODYiIHg9IjExMDcuNSIgeT0iMTk5LjA5MzgiPit2b2lkIHNldE5hbWUoU3RyaW5nIG5hbWUpPC90ZXh0Pjx0ZXh0IGZpbGw9IiMwMDAwMDAiIGZvbnQtZmFtaWx5PSJzYW5zLXNlcmlmIiBmb250LXNpemU9IjE0IiBsZW5ndGhBZGp1c3Q9InNwYWNpbmciIHRleHRMZW5ndGg9IjIwMCIgeD0iMTEwNy41IiB5PSIyMTQuMDc4MSI+K3ZvaWQgc2V0RW1haWwoU3RyaW5nIGVtYWlsKTwvdGV4dD48dGV4dCBmaWxsPSIjMDAwMDAwIiBmb250LWZhbWlseT0ic2Fucy1zZXJpZiIgZm9udC1zaXplPSIxNCIgbGVuZ3RoQWRqdXN0PSJzcGFjaW5nIiB0ZXh0TGVuZ3RoPSIyNDIiIHg9IjExMDcuNSIgeT0iMjI5LjA2MjUiPit2b2lkIHNldFBhc3N3b3JkKFN0cmluZyBwYXNzd29yZCk8L3RleHQ+PHRleHQgZmlsbD0iIzAwMDAwMCIgZm9udC1mYW1pbHk9InNhbnMtc2VyaWYiIGZvbnQtc2l6ZT0iMTQiIGxlbmd0aEFkanVzdD0ic3BhY2luZyIgdGV4dExlbmd0aD0iMTg0IiB4PSIxMTA3LjUiIHk9IjI0NC4wNDY5Ij4rdm9pZCBzZXRSb2xlKFN0cmluZyByb2xlKTwvdGV4dD48dGV4dCBmaWxsPSIjMDAwMDAwIiBmb250LWZhbWlseT0ic2Fucy1zZXJpZiIgZm9udC1zaXplPSIxNCIgbGVuZ3RoQWRqdXN0PSJzcGFjaW5nIiB0ZXh0TGVuZ3RoPSIzMzMiIHg9IjExMDcuNSIgeT0iMjU5LjAzMTMiPitib29sZWFuIHZhbGlkYXRlUGFzc3dvcmQoU3RyaW5nIGlucHV0UGFzc3dvcmQpPC90ZXh0PjwvZz48IS0tY2xhc3MgU3R1ZGVudC0tPjxnIGlkPSJlbGVtX1N0dWRlbnQiPjxyZWN0IGNvZGVMaW5lPSIyNiIgZmlsbD0iI0YxRjFGMSIgaGVpZ2h0PSIzMTcuNzE4OCIgaWQ9IlN0dWRlbnQiIHJ4PSIyLjUiIHJ5PSIyLjUiIHN0eWxlPSJzdHJva2U6IzE4MTgxODtzdHJva2Utd2lkdGg6MC41OyIgd2lkdGg9IjM1MCIgeD0iODY5IiB5PSIzMjUiLz48ZWxsaXBzZSBjeD0iMTAxNS4yNSIgY3k9IjM0MSIgZmlsbD0iI0MyQzJDMiIgcng9IjExIiByeT0iMTEiIHN0eWxlPSJzdHJva2U6IzE4MTgxODtzdHJva2Utd2lkdGg6MS4wOyIvPjxwYXRoIGQ9Ik0xMDEyLjg3NSwzNDUuMjUgTDEwMTIuODc1LDM0NyBMMTAxNy44MTI1LDM0NyBMMTAxNy44MTI1LDM0NS4yNSBMMTAxMi44NzUsMzQ1LjI1IFogTTEwMTMuNTYyNSwzNDUuOTM3NSBRMTAxMy41NjI1LDM0NS45Mzc1IDEwMTMuNTYyNSwzMzYuNzUgTDEwMTEuODEyNSwzMzYuNzUgUTEwMTEuODEyNSwzMzYuNzUgMTAxMS44MTI1LDM0NS45Mzc1IEwxMDEzLjU2MjUsMzQ1LjkzNzUgWiBNMTAxNy4xMjUsMzQ1LjkzNzUgTDEwMTguODc1LDM0NS45Mzc1IFExMDE4Ljg3NSwzNDUuOTM3NSAxMDE4Ljg3NSwzNDMuMTI1IEwxMDE3LjEyNSwzNDMuMTI1IFExMDE3LjEyNSwzNDMuMTI1IDEwMTcuMTI1LDM0NS45Mzc1IFogTTEwMTcuMTI1LDMzNi43NSBRMTAxNy4xMjUsMzM2Ljc1IDEwMTcuMTI1LDMzOS41NjI1IEwxMDE4Ljg3NSwzMzkuNTYyNSBRMTAxOC44NzUsMzM5LjU2MjUgMTAxOC44NzUsMzM2Ljc1IEwxMDE3LjEyNSwzMzYuNzUgWiBNMTAxMi44NzUsMzM3LjQzNzUgTDEwMTcuODEyNSwzMzcuNDM3NSBMMTAxNy44MTI1LDMzNS42ODc1IEwxMDEyLjg3NSwzMzUuNjg3NSBMMTAxMi44NzUsMzM3LjQzNzUgWiAiIGZpbGw9IiMwMDAwMDAiLz48dGV4dCBmaWxsPSIjMDAwMDAwIiBmb250LWZhbWlseT0ic2Fucy1zZXJpZiIgZm9udC1zaXplPSIxNCIgbGVuZ3RoQWRqdXN0PSJzcGFjaW5nIiB0ZXh0TGVuZ3RoPSI0OSIgeD0iMTAzNS43NSIgeT0iMzQ2Ljc0MjIiPlN0dWRlbnQ8L3RleHQ+PGxpbmUgc3R5bGU9InN0cm9rZTojMTgxODE4O3N0cm9rZS13aWR0aDowLjU7IiB4MT0iODcwIiB4Mj0iMTIxOCIgeTE9IjM1NyIgeTI9IjM1NyIvPjx0ZXh0IGZpbGw9IiMwMDAwMDAiIGZvbnQtZmFtaWx5PSJzYW5zLXNlcmlmIiBmb250LXNpemU9IjE0IiBsZW5ndGhBZGp1c3Q9InNwYWNpbmciIHRleHRMZW5ndGg9IjEwNSIgeD0iODc1IiB5PSIzNzQuMjM0NCI+LVN0cmluZyBjb250YWN0PC90ZXh0Pjx0ZXh0IGZpbGw9IiMwMDAwMDAiIGZvbnQtZmFtaWx5PSJzYW5zLXNlcmlmIiBmb250LXNpemU9IjE0IiBsZW5ndGhBZGp1c3Q9InNwYWNpbmciIHRleHRMZW5ndGg9Ijk4IiB4PSI4NzUiIHk9IjM4OS4yMTg4Ij4tU3RyaW5nIHNjaG9vbDwvdGV4dD48dGV4dCBmaWxsPSIjMDAwMDAwIiBmb250LWZhbWlseT0ic2Fucy1zZXJpZiIgZm9udC1zaXplPSIxNCIgbGVuZ3RoQWRqdXN0PSJzcGFjaW5nIiB0ZXh0TGVuZ3RoPSIxMTIiIHg9Ijg3NSIgeT0iNDA0LjIwMzEiPi1TdHJpbmcgZGlzdHJpY3Q8L3RleHQ+PHRleHQgZmlsbD0iIzAwMDAwMCIgZm9udC1mYW1pbHk9InNhbnMtc2VyaWYiIGZvbnQtc2l6ZT0iMTQiIGxlbmd0aEFkanVzdD0ic3BhY2luZyIgdGV4dExlbmd0aD0iOTkiIHg9Ijg3NSIgeT0iNDE5LjE4NzUiPi1TdHJpbmcgc3RyZWFtPC90ZXh0Pjx0ZXh0IGZpbGw9IiMwMDAwMDAiIGZvbnQtZmFtaWx5PSJzYW5zLXNlcmlmIiBmb250LXNpemU9IjE0IiBsZW5ndGhBZGp1c3Q9InNwYWNpbmciIHRleHRMZW5ndGg9Ijk4IiB4PSI4NzUiIHk9IjQzNC4xNzE5Ij4tRG91YmxlIHpTY29yZTwvdGV4dD48dGV4dCBmaWxsPSIjMDAwMDAwIiBmb250LWZhbWlseT0ic2Fucy1zZXJpZiIgZm9udC1zaXplPSIxNCIgbGVuZ3RoQWRqdXN0PSJzcGFjaW5nIiB0ZXh0TGVuZ3RoPSIxNDAiIHg9Ijg3NSIgeT0iNDQ5LjE1NjMiPi1PTFJlc3VsdHMgb2xSZXN1bHRzPC90ZXh0Pjx0ZXh0IGZpbGw9IiMwMDAwMDAiIGZvbnQtZmFtaWx5PSJzYW5zLXNlcmlmIiBmb250LXNpemU9IjE0IiBsZW5ndGhBZGp1c3Q9InNwYWNpbmciIHRleHRMZW5ndGg9IjE0MCIgeD0iODc1IiB5PSI0NjQuMTQwNiI+LUFMUmVzdWx0cyBhbFJlc3VsdHM8L3RleHQ+PHRleHQgZmlsbD0iIzAwMDAwMCIgZm9udC1mYW1pbHk9InNhbnMtc2VyaWYiIGZvbnQtc2l6ZT0iMTQiIGxlbmd0aEFkanVzdD0ic3BhY2luZyIgdGV4dExlbmd0aD0iMTI2IiB4PSI4NzUiIHk9IjQ3OS4xMjUiPi1TdHJpbmcgdW5pdmVyc2l0eTwvdGV4dD48dGV4dCBmaWxsPSIjMDAwMDAwIiBmb250LWZhbWlseT0ic2Fucy1zZXJpZiIgZm9udC1zaXplPSIxNCIgbGVuZ3RoQWRqdXN0PSJzcGFjaW5nIiB0ZXh0TGVuZ3RoPSI5OCIgeD0iODc1IiB5PSI0OTQuMTA5NCI+LVN0cmluZyBjb3Vyc2U8L3RleHQ+PHRleHQgZmlsbD0iIzAwMDAwMCIgZm9udC1mYW1pbHk9InNhbnMtc2VyaWYiIGZvbnQtc2l6ZT0iMTQiIGxlbmd0aEFkanVzdD0ic3BhY2luZyIgdGV4dExlbmd0aD0iNzciIHg9Ijg3NSIgeT0iNTA5LjA5MzgiPi1Eb3VibGUgZ3BhPC90ZXh0Pjx0ZXh0IGZpbGw9IiMwMDAwMDAiIGZvbnQtZmFtaWx5PSJzYW5zLXNlcmlmIiBmb250LXNpemU9IjE0IiBsZW5ndGhBZGp1c3Q9InNwYWNpbmciIHRleHRMZW5ndGg9IjE2MSIgeD0iODc1IiB5PSI1MjQuMDc4MSI+LVN0dWRlbnRQcm9maWxlIHByb2ZpbGU8L3RleHQ+PHRleHQgZmlsbD0iIzAwMDAwMCIgZm9udC1mYW1pbHk9InNhbnMtc2VyaWYiIGZvbnQtc2l6ZT0iMTQiIGxlbmd0aEFkanVzdD0ic3BhY2luZyIgdGV4dExlbmd0aD0iMjQ1IiB4PSI4NzUiIHk9IjUzOS4wNjI1Ij4tTGlzdCZsdDtDYXJlZXJQcmVkaWN0aW9uJmd0OyBwcmVkaWN0aW9uczwvdGV4dD48bGluZSBzdHlsZT0ic3Ryb2tlOiMxODE4MTg7c3Ryb2tlLXdpZHRoOjAuNTsiIHgxPSI4NzAiIHgyPSIxMjE4IiB5MT0iNTQ0LjgxMjUiIHkyPSI1NDQuODEyNSIvPjx0ZXh0IGZpbGw9IiMwMDAwMDAiIGZvbnQtZmFtaWx5PSJzYW5zLXNlcmlmIiBmb250LXNpemU9IjE0IiBsZW5ndGhBZGp1c3Q9InNwYWNpbmciIHRleHRMZW5ndGg9IjE3NyIgeD0iODc1IiB5PSI1NjIuMDQ2OSI+K09MUmVzdWx0cyBnZXRPTFJlc3VsdHMoKTwvdGV4dD48dGV4dCBmaWxsPSIjMDAwMDAwIiBmb250LWZhbWlseT0ic2Fucy1zZXJpZiIgZm9udC1zaXplPSIxNCIgbGVuZ3RoQWRqdXN0PSJzcGFjaW5nIiB0ZXh0TGVuZ3RoPSIxNzciIHg9Ijg3NSIgeT0iNTc3LjAzMTMiPitBTFJlc3VsdHMgZ2V0QUxSZXN1bHRzKCk8L3RleHQ+PHRleHQgZmlsbD0iIzAwMDAwMCIgZm9udC1mYW1pbHk9InNhbnMtc2VyaWYiIGZvbnQtc2l6ZT0iMTQiIGxlbmd0aEFkanVzdD0ic3BhY2luZyIgdGV4dExlbmd0aD0iMTM1IiB4PSI4NzUiIHk9IjU5Mi4wMTU2Ij4rRG91YmxlIGdldFpTY29yZSgpPC90ZXh0Pjx0ZXh0IGZpbGw9IiMwMDAwMDAiIGZvbnQtZmFtaWx5PSJzYW5zLXNlcmlmIiBmb250LXNpemU9IjE0IiBsZW5ndGhBZGp1c3Q9InNwYWNpbmciIHRleHRMZW5ndGg9IjE5OCIgeD0iODc1IiB5PSI2MDciPitTdHVkZW50UHJvZmlsZSBnZXRQcm9maWxlKCk8L3RleHQ+PHRleHQgZmlsbD0iIzAwMDAwMCIgZm9udC1mYW1pbHk9InNhbnMtc2VyaWYiIGZvbnQtc2l6ZT0iMTQiIGxlbmd0aEFkanVzdD0ic3BhY2luZyIgdGV4dExlbmd0aD0iMjgyIiB4PSI4NzUiIHk9IjYyMS45ODQ0Ij4rTGlzdCZsdDtDYXJlZXJQcmVkaWN0aW9uJmd0OyBnZXRQcmVkaWN0aW9ucygpPC90ZXh0Pjx0ZXh0IGZpbGw9IiMwMDAwMDAiIGZvbnQtZmFtaWx5PSJzYW5zLXNlcmlmIiBmb250LXNpemU9IjE0IiBsZW5ndGhBZGp1c3Q9InNwYWNpbmciIHRleHRMZW5ndGg9IjMzOCIgeD0iODc1IiB5PSI2MzYuOTY4OCI+K3ZvaWQgYWRkUHJlZGljdGlvbihDYXJlZXJQcmVkaWN0aW9uIHByZWRpY3Rpb24pPC90ZXh0PjwvZz48IS0tY2xhc3MgU3R1ZGVudFByb2ZpbGUtLT48ZyBpZD0iZWxlbV9TdHVkZW50UHJvZmlsZSI+PHJlY3QgY29kZUxpbmU9IjQ4IiBmaWxsPSIjRjFGMUYxIiBoZWlnaHQ9IjE4Mi44NTk0IiBpZD0iU3R1ZGVudFByb2ZpbGUiIHJ4PSIyLjUiIHJ5PSIyLjUiIHN0eWxlPSJzdHJva2U6IzE4MTgxODtzdHJva2Utd2lkdGg6MC41OyIgd2lkdGg9IjI1MiIgeD0iNyIgeT0iNzEwLjUiLz48ZWxsaXBzZSBjeD0iNzkuNzUiIGN5PSI3MjYuNSIgZmlsbD0iI0MyQzJDMiIgcng9IjExIiByeT0iMTEiIHN0eWxlPSJzdHJva2U6IzE4MTgxODtzdHJva2Utd2lkdGg6MS4wOyIvPjxwYXRoIGQ9Ik03Ny4zNzUsNzMwLjc1IEw3Ny4zNzUsNzMyLjUgTDgyLjMxMjUsNzMyLjUgTDgyLjMxMjUsNzMwLjc1IEw3Ny4zNzUsNzMwLjc1IFogTTc4LjA2MjUsNzMxLjQzNzUgUTc4LjA2MjUsNzMxLjQzNzUgNzguMDYyNSw3MjIuMjUgTDc2LjMxMjUsNzIyLjI1IFE3Ni4zMTI1LDcyMi4yNSA3Ni4zMTI1LDczMS40Mzc1IEw3OC4wNjI1LDczMS40Mzc1IFogTTgxLjYyNSw3MzEuNDM3NSBMODMuMzc1LDczMS40Mzc1IFE4My4zNzUsNzMxLjQzNzUgODMuMzc1LDcyOC42MjUgTDgxLjYyNSw3MjguNjI1IFE4MS42MjUsNzI4LjYyNSA4MS42MjUsNzMxLjQzNzUgWiBNODEuNjI1LDcyMi4yNSBRODEuNjI1LDcyMi4yNSA4MS42MjUsNzI1LjA2MjUgTDgzLjM3NSw3MjUuMDYyNSBRODMuMzc1LDcyNS4wNjI1IDgzLjM3NSw3MjIuMjUgTDgxLjYyNSw3MjIuMjUgWiBNNzcuMzc1LDcyMi45Mzc1IEw4Mi4zMTI1LDcyMi45Mzc1IEw4Mi4zMTI1LDcyMS4xODc1IEw3Ny4zNzUsNzIxLjE4NzUgTDc3LjM3NSw3MjIuOTM3NSBaICIgZmlsbD0iIzAwMDAwMCIvPjx0ZXh0IGZpbGw9IiMwMDAwMDAiIGZvbnQtZmFtaWx5PSJzYW5zLXNlcmlmIiBmb250LXNpemU9IjE0IiBsZW5ndGhBZGp1c3Q9InNwYWNpbmciIHRleHRMZW5ndGg9Ijk4IiB4PSIxMDAuMjUiIHk9IjczMi4yNDIyIj5TdHVkZW50UHJvZmlsZTwvdGV4dD48bGluZSBzdHlsZT0ic3Ryb2tlOiMxODE4MTg7c3Ryb2tlLXdpZHRoOjAuNTsiIHgxPSI4IiB4Mj0iMjU4IiB5MT0iNzQyLjUiIHkyPSI3NDIuNSIvPjx0ZXh0IGZpbGw9IiMwMDAwMDAiIGZvbnQtZmFtaWx5PSJzYW5zLXNlcmlmIiBmb250LXNpemU9IjE0IiBsZW5ndGhBZGp1c3Q9InNwYWNpbmciIHRleHRMZW5ndGg9IjE2MSIgeD0iMTMiIHk9Ijc1OS43MzQ0Ij4tTGlzdCZsdDtTdHJpbmcmZ3Q7IGludGVyZXN0czwvdGV4dD48dGV4dCBmaWxsPSIjMDAwMDAwIiBmb250LWZhbWlseT0ic2Fucy1zZXJpZiIgZm9udC1zaXplPSIxNCIgbGVuZ3RoQWRqdXN0PSJzcGFjaW5nIiB0ZXh0TGVuZ3RoPSIxNDAiIHg9IjEzIiB5PSI3NzQuNzE4OCI+LUxpc3QmbHQ7U3RyaW5nJmd0OyBza2lsbHM8L3RleHQ+PHRleHQgZmlsbD0iIzAwMDAwMCIgZm9udC1mYW1pbHk9InNhbnMtc2VyaWYiIGZvbnQtc2l6ZT0iMTQiIGxlbmd0aEFkanVzdD0ic3BhY2luZyIgdGV4dExlbmd0aD0iMTYxIiB4PSIxMyIgeT0iNzg5LjcwMzEiPi1MaXN0Jmx0O1N0cmluZyZndDsgc3RyZW5ndGhzPC90ZXh0PjxsaW5lIHN0eWxlPSJzdHJva2U6IzE4MTgxODtzdHJva2Utd2lkdGg6MC41OyIgeDE9IjgiIHgyPSIyNTgiIHkxPSI3OTUuNDUzMSIgeTI9Ijc5NS40NTMxIi8+PHRleHQgZmlsbD0iIzAwMDAwMCIgZm9udC1mYW1pbHk9InNhbnMtc2VyaWYiIGZvbnQtc2l6ZT0iMTQiIGxlbmd0aEFkanVzdD0ic3BhY2luZyIgdGV4dExlbmd0aD0iMjQwIiB4PSIxMyIgeT0iODEyLjY4NzUiPit2b2lkIGFkZEludGVyZXN0KFN0cmluZyBpbnRlcmVzdCk8L3RleHQ+PHRleHQgZmlsbD0iIzAwMDAwMCIgZm9udC1mYW1pbHk9InNhbnMtc2VyaWYiIGZvbnQtc2l6ZT0iMTQiIGxlbmd0aEFkanVzdD0ic3BhY2luZyIgdGV4dExlbmd0aD0iMTk4IiB4PSIxMyIgeT0iODI3LjY3MTkiPit2b2lkIGFkZFNraWxsKFN0cmluZyBza2lsbCk8L3RleHQ+PHRleHQgZmlsbD0iIzAwMDAwMCIgZm9udC1mYW1pbHk9InNhbnMtc2VyaWYiIGZvbnQtc2l6ZT0iMTQiIGxlbmd0aEFkanVzdD0ic3BhY2luZyIgdGV4dExlbmd0aD0iMjQwIiB4PSIxMyIgeT0iODQyLjY1NjMiPit2b2lkIGFkZFN0cmVuZ3RoKFN0cmluZyBzdHJlbmd0aCk8L3RleHQ+PHRleHQgZmlsbD0iIzAwMDAwMCIgZm9udC1mYW1pbHk9InNhbnMtc2VyaWYiIGZvbnQtc2l6ZT0iMTQiIGxlbmd0aEFkanVzdD0ic3BhY2luZyIgdGV4dExlbmd0aD0iMTk4IiB4PSIxMyIgeT0iODU3LjY0MDYiPitMaXN0Jmx0O1N0cmluZyZndDsgZ2V0SW50ZXJlc3RzKCk8L3RleHQ+PHRleHQgZmlsbD0iIzAwMDAwMCIgZm9udC1mYW1pbHk9InNhbnMtc2VyaWYiIGZvbnQtc2l6ZT0iMTQiIGxlbmd0aEFkanVzdD0ic3BhY2luZyIgdGV4dExlbmd0aD0iMTc3IiB4PSIxMyIgeT0iODcyLjYyNSI+K0xpc3QmbHQ7U3RyaW5nJmd0OyBnZXRTa2lsbHMoKTwvdGV4dD48dGV4dCBmaWxsPSIjMDAwMDAwIiBmb250LWZhbWlseT0ic2Fucy1zZXJpZiIgZm9udC1zaXplPSIxNCIgbGVuZ3RoQWRqdXN0PSJzcGFjaW5nIiB0ZXh0TGVuZ3RoPSIxOTgiIHg9IjEzIiB5PSI4ODcuNjA5NCI+K0xpc3QmbHQ7U3RyaW5nJmd0OyBnZXRTdHJlbmd0aHMoKTwvdGV4dD48L2c+PCEtLWNsYXNzIE9MUmVzdWx0cy0tPjxnIGlkPSJlbGVtX09MUmVzdWx0cyI+PHJlY3QgY29kZUxpbmU9IjYxIiBmaWxsPSIjRjFGMUYxIiBoZWlnaHQ9IjEyMi45MjE5IiBpZD0iT0xSZXN1bHRzIiByeD0iMi41IiByeT0iMi41IiBzdHlsZT0ic3Ryb2tlOiMxODE4MTg7c3Ryb2tlLXdpZHRoOjAuNTsiIHdpZHRoPSIzODUiIHg9IjI5NC41IiB5PSI3NDAuNSIvPjxlbGxpcHNlIGN4PSI0NTEuMjUiIGN5PSI3NTYuNSIgZmlsbD0iI0MyQzJDMiIgcng9IjExIiByeT0iMTEiIHN0eWxlPSJzdHJva2U6IzE4MTgxODtzdHJva2Utd2lkdGg6MS4wOyIvPjxwYXRoIGQ9Ik00NDguODc1LDc2MC43NSBMNDQ4Ljg3NSw3NjIuNSBMNDUzLjgxMjUsNzYyLjUgTDQ1My44MTI1LDc2MC43NSBMNDQ4Ljg3NSw3NjAuNzUgWiBNNDQ5LjU2MjUsNzYxLjQzNzUgUTQ0OS41NjI1LDc2MS40Mzc1IDQ0OS41NjI1LDc1Mi4yNSBMNDQ3LjgxMjUsNzUyLjI1IFE0NDcuODEyNSw3NTIuMjUgNDQ3LjgxMjUsNzYxLjQzNzUgTDQ0OS41NjI1LDc2MS40Mzc1IFogTTQ1My4xMjUsNzYxLjQzNzUgTDQ1NC44NzUsNzYxLjQzNzUgUTQ1NC44NzUsNzYxLjQzNzUgNDU0Ljg3NSw3NTguNjI1IEw0NTMuMTI1LDc1OC42MjUgUTQ1My4xMjUsNzU4LjYyNSA0NTMuMTI1LDc2MS40Mzc1IFogTTQ1My4xMjUsNzUyLjI1IFE0NTMuMTI1LDc1Mi4yNSA0NTMuMTI1LDc1NS4wNjI1IEw0NTQuODc1LDc1NS4wNjI1IFE0NTQuODc1LDc1NS4wNjI1IDQ1NC44NzUsNzUyLjI1IEw0NTMuMTI1LDc1Mi4yNSBaIE00NDguODc1LDc1Mi45Mzc1IEw0NTMuODEyNSw3NTIuOTM3NSBMNDUzLjgxMjUsNzUxLjE4NzUgTDQ0OC44NzUsNzUxLjE4NzUgTDQ0OC44NzUsNzUyLjkzNzUgWiAiIGZpbGw9IiMwMDAwMDAiLz48dGV4dCBmaWxsPSIjMDAwMDAwIiBmb250LWZhbWlseT0ic2Fucy1zZXJpZiIgZm9udC1zaXplPSIxNCIgbGVuZ3RoQWRqdXN0PSJzcGFjaW5nIiB0ZXh0TGVuZ3RoPSI2MyIgeD0iNDcxLjc1IiB5PSI3NjIuMjQyMiI+T0xSZXN1bHRzPC90ZXh0PjxsaW5lIHN0eWxlPSJzdHJva2U6IzE4MTgxODtzdHJva2Utd2lkdGg6MC41OyIgeDE9IjI5NS41IiB4Mj0iNjc4LjUiIHkxPSI3NzIuNSIgeTI9Ijc3Mi41Ii8+PHRleHQgZmlsbD0iIzAwMDAwMCIgZm9udC1mYW1pbHk9InNhbnMtc2VyaWYiIGZvbnQtc2l6ZT0iMTQiIGxlbmd0aEFkanVzdD0ic3BhY2luZyIgdGV4dExlbmd0aD0iMTk2IiB4PSIzMDAuNSIgeT0iNzg5LjczNDQiPi1NYXAmbHQ7U3RyaW5nLCBTdHJpbmcmZ3Q7IHJlc3VsdHM8L3RleHQ+PGxpbmUgc3R5bGU9InN0cm9rZTojMTgxODE4O3N0cm9rZS13aWR0aDowLjU7IiB4MT0iMjk1LjUiIHgyPSI2NzguNSIgeTE9Ijc5NS40ODQ0IiB5Mj0iNzk1LjQ4NDQiLz48dGV4dCBmaWxsPSIjMDAwMDAwIiBmb250LWZhbWlseT0ic2Fucy1zZXJpZiIgZm9udC1zaXplPSIxNCIgbGVuZ3RoQWRqdXN0PSJzcGFjaW5nIiB0ZXh0TGVuZ3RoPSIzMTciIHg9IjMwMC41IiB5PSI4MTIuNzE4OCI+K3ZvaWQgYWRkUmVzdWx0KFN0cmluZyBzdWJqZWN0LCBTdHJpbmcgZ3JhZGUpPC90ZXh0Pjx0ZXh0IGZpbGw9IiMwMDAwMDAiIGZvbnQtZmFtaWx5PSJzYW5zLXNlcmlmIiBmb250LXNpemU9IjE0IiBsZW5ndGhBZGp1c3Q9InNwYWNpbmciIHRleHRMZW5ndGg9IjI0MSIgeD0iMzAwLjUiIHk9IjgyNy43MDMxIj4rdm9pZCByZW1vdmVSZXN1bHQoU3RyaW5nIHN1YmplY3QpPC90ZXh0Pjx0ZXh0IGZpbGw9IiMwMDAwMDAiIGZvbnQtZmFtaWx5PSJzYW5zLXNlcmlmIiBmb250LXNpemU9IjE0IiBsZW5ndGhBZGp1c3Q9InNwYWNpbmciIHRleHRMZW5ndGg9IjIzMyIgeD0iMzAwLjUiIHk9Ijg0Mi42ODc1Ij4rTWFwJmx0O1N0cmluZywgU3RyaW5nJmd0OyBnZXRSZXN1bHRzKCk8L3RleHQ+PHRleHQgZmlsbD0iIzAwMDAwMCIgZm9udC1mYW1pbHk9InNhbnMtc2VyaWYiIGZvbnQtc2l6ZT0iMTQiIGxlbmd0aEFkanVzdD0ic3BhY2luZyIgdGV4dExlbmd0aD0iMzczIiB4PSIzMDAuNSIgeT0iODU3LjY3MTkiPitib29sZWFuIHZhbGlkYXRlUmVzdWx0cyhNYXAmbHQ7U3RyaW5nLCBTdHJpbmcmZ3Q7IHJlc3VsdHMpPC90ZXh0PjwvZz48IS0tY2xhc3MgQUxSZXN1bHRzLS0+PGcgaWQ9ImVsZW1fQUxSZXN1bHRzIj48cmVjdCBjb2RlTGluZT0iNzAiIGZpbGw9IiNGMUYxRjEiIGhlaWdodD0iMTIyLjkyMTkiIGlkPSJBTFJlc3VsdHMiIHJ4PSIyLjUiIHJ5PSIyLjUiIHN0eWxlPSJzdHJva2U6IzE4MTgxODtzdHJva2Utd2lkdGg6MC41OyIgd2lkdGg9IjM4NSIgeD0iNzE0LjUiIHk9Ijc0MC41Ii8+PGVsbGlwc2UgY3g9Ijg3MS4yNSIgY3k9Ijc1Ni41IiBmaWxsPSIjQzJDMkMyIiByeD0iMTEiIHJ5PSIxMSIgc3R5bGU9InN0cm9rZTojMTgxODE4O3N0cm9rZS13aWR0aDoxLjA7Ii8+PHBhdGggZD0iTTg2OC44NzUsNzYwLjc1IEw4NjguODc1LDc2Mi41IEw4NzMuODEyNSw3NjIuNSBMODczLjgxMjUsNzYwLjc1IEw4NjguODc1LDc2MC43NSBaIE04NjkuNTYyNSw3NjEuNDM3NSBRODY5LjU2MjUsNzYxLjQzNzUgODY5LjU2MjUsNzUyLjI1IEw4NjcuODEyNSw3NTIuMjUgUTg2Ny44MTI1LDc1Mi4yNSA4NjcuODEyNSw3NjEuNDM3NSBMODY5LjU2MjUsNzYxLjQzNzUgWiBNODczLjEyNSw3NjEuNDM3NSBMODc0Ljg3NSw3NjEuNDM3NSBRODc0Ljg3NSw3NjEuNDM3NSA4NzQuODc1LDc1OC42MjUgTDg3My4xMjUsNzU4LjYyNSBRODczLjEyNSw3NTguNjI1IDg3My4xMjUsNzYxLjQzNzUgWiBNODczLjEyNSw3NTIuMjUgUTg3My4xMjUsNzUyLjI1IDg3My4xMjUsNzU1LjA2MjUgTDg3NC44NzUsNzU1LjA2MjUgUTg3NC44NzUsNzU1LjA2MjUgODc0Ljg3NSw3NTIuMjUgTDg3My4xMjUsNzUyLjI1IFogTTg2OC44NzUsNzUyLjkzNzUgTDg3My44MTI1LDc1Mi45Mzc1IEw4NzMuODEyNSw3NTEuMTg3NSBMODY4Ljg3NSw3NTEuMTg3NSBMODY4Ljg3NSw3NTIuOTM3NSBaICIgZmlsbD0iIzAwMDAwMCIvPjx0ZXh0IGZpbGw9IiMwMDAwMDAiIGZvbnQtZmFtaWx5PSJzYW5zLXNlcmlmIiBmb250LXNpemU9IjE0IiBsZW5ndGhBZGp1c3Q9InNwYWNpbmciIHRleHRMZW5ndGg9IjYzIiB4PSI4OTEuNzUiIHk9Ijc2Mi4yNDIyIj5BTFJlc3VsdHM8L3RleHQ+PGxpbmUgc3R5bGU9InN0cm9rZTojMTgxODE4O3N0cm9rZS13aWR0aDowLjU7IiB4MT0iNzE1LjUiIHgyPSIxMDk4LjUiIHkxPSI3NzIuNSIgeTI9Ijc3Mi41Ii8+PHRleHQgZmlsbD0iIzAwMDAwMCIgZm9udC1mYW1pbHk9InNhbnMtc2VyaWYiIGZvbnQtc2l6ZT0iMTQiIGxlbmd0aEFkanVzdD0ic3BhY2luZyIgdGV4dExlbmd0aD0iMTk2IiB4PSI3MjAuNSIgeT0iNzg5LjczNDQiPi1NYXAmbHQ7U3RyaW5nLCBTdHJpbmcmZ3Q7IHJlc3VsdHM8L3RleHQ+PGxpbmUgc3R5bGU9InN0cm9rZTojMTgxODE4O3N0cm9rZS13aWR0aDowLjU7IiB4MT0iNzE1LjUiIHgyPSIxMDk4LjUiIHkxPSI3OTUuNDg0NCIgeTI9Ijc5NS40ODQ0Ii8+PHRleHQgZmlsbD0iIzAwMDAwMCIgZm9udC1mYW1pbHk9InNhbnMtc2VyaWYiIGZvbnQtc2l6ZT0iMTQiIGxlbmd0aEFkanVzdD0ic3BhY2luZyIgdGV4dExlbmd0aD0iMzE3IiB4PSI3MjAuNSIgeT0iODEyLjcxODgiPit2b2lkIGFkZFJlc3VsdChTdHJpbmcgc3ViamVjdCwgU3RyaW5nIGdyYWRlKTwvdGV4dD48dGV4dCBmaWxsPSIjMDAwMDAwIiBmb250LWZhbWlseT0ic2Fucy1zZXJpZiIgZm9udC1zaXplPSIxNCIgbGVuZ3RoQWRqdXN0PSJzcGFjaW5nIiB0ZXh0TGVuZ3RoPSIyNDEiIHg9IjcyMC41IiB5PSI4MjcuNzAzMSI+K3ZvaWQgcmVtb3ZlUmVzdWx0KFN0cmluZyBzdWJqZWN0KTwvdGV4dD48dGV4dCBmaWxsPSIjMDAwMDAwIiBmb250LWZhbWlseT0ic2Fucy1zZXJpZiIgZm9udC1zaXplPSIxNCIgbGVuZ3RoQWRqdXN0PSJzcGFjaW5nIiB0ZXh0TGVuZ3RoPSIyMzMiIHg9IjcyMC41IiB5PSI4NDIuNjg3NSI+K01hcCZsdDtTdHJpbmcsIFN0cmluZyZndDsgZ2V0UmVzdWx0cygpPC90ZXh0Pjx0ZXh0IGZpbGw9IiMwMDAwMDAiIGZvbnQtZmFtaWx5PSJzYW5zLXNlcmlmIiBmb250LXNpemU9IjE0IiBsZW5ndGhBZGp1c3Q9InNwYWNpbmciIHRleHRMZW5ndGg9IjM3MyIgeD0iNzIwLjUiIHk9Ijg1Ny42NzE5Ij4rYm9vbGVhbiB2YWxpZGF0ZVJlc3VsdHMoTWFwJmx0O1N0cmluZywgU3RyaW5nJmd0OyByZXN1bHRzKTwvdGV4dD48L2c+PCEtLWNsYXNzIEluc3RpdHV0aW9uLS0+PGcgaWQ9ImVsZW1fSW5zdGl0dXRpb24iPjxyZWN0IGNvZGVMaW5lPSI3OSIgZmlsbD0iI0YxRjFGMSIgaGVpZ2h0PSIxOTcuODQzOCIgaWQ9Ikluc3RpdHV0aW9uIiByeD0iMi41IiByeT0iMi41IiBzdHlsZT0ic3Ryb2tlOiMxODE4MTg7c3Ryb2tlLXdpZHRoOjAuNTsiIHdpZHRoPSIyNDYiIHg9IjE1MjAiIHk9IjcwMyIvPjxlbGxpcHNlIGN4PSIxNjAwLjI1IiBjeT0iNzE5IiBmaWxsPSIjQzJDMkMyIiByeD0iMTEiIHJ5PSIxMSIgc3R5bGU9InN0cm9rZTojMTgxODE4O3N0cm9rZS13aWR0aDoxLjA7Ii8+PHBhdGggZD0iTTE1OTcuODc1LDcyMy4yNSBMMTU5Ny44NzUsNzI1IEwxNjAyLjgxMjUsNzI1IEwxNjAyLjgxMjUsNzIzLjI1IEwxNTk3Ljg3NSw3MjMuMjUgWiBNMTU5OC41NjI1LDcyMy45Mzc1IFExNTk4LjU2MjUsNzIzLjkzNzUgMTU5OC41NjI1LDcxNC43NSBMMTU5Ni44MTI1LDcxNC43NSBRMTU5Ni44MTI1LDcxNC43NSAxNTk2LjgxMjUsNzIzLjkzNzUgTDE1OTguNTYyNSw3MjMuOTM3NSBaIE0xNjAyLjEyNSw3MjMuOTM3NSBMMTYwMy44NzUsNzIzLjkzNzUgUTE2MDMuODc1LDcyMy45Mzc1IDE2MDMuODc1LDcyMS4xMjUgTDE2MDIuMTI1LDcyMS4xMjUgUTE2MDIuMTI1LDcyMS4xMjUgMTYwMi4xMjUsNzIzLjkzNzUgWiBNMTYwMi4xMjUsNzE0Ljc1IFExNjAyLjEyNSw3MTQuNzUgMTYwMi4xMjUsNzE3LjU2MjUgTDE2MDMuODc1LDcxNy41NjI1IFExNjAzLjg3NSw3MTcuNTYyNSAxNjAzLjg3NSw3MTQuNzUgTDE2MDIuMTI1LDcxNC43NSBaIE0xNTk3Ljg3NSw3MTUuNDM3NSBMMTYwMi44MTI1LDcxNS40Mzc1IEwxNjAyLjgxMjUsNzEzLjY4NzUgTDE1OTcuODc1LDcxMy42ODc1IEwxNTk3Ljg3NSw3MTUuNDM3NSBaICIgZmlsbD0iIzAwMDAwMCIvPjx0ZXh0IGZpbGw9IiMwMDAwMDAiIGZvbnQtZmFtaWx5PSJzYW5zLXNlcmlmIiBmb250LXNpemU9IjE0IiBsZW5ndGhBZGp1c3Q9InNwYWNpbmciIHRleHRMZW5ndGg9Ijc3IiB4PSIxNjIwLjc1IiB5PSI3MjQuNzQyMiI+SW5zdGl0dXRpb248L3RleHQ+PGxpbmUgc3R5bGU9InN0cm9rZTojMTgxODE4O3N0cm9rZS13aWR0aDowLjU7IiB4MT0iMTUyMSIgeDI9IjE3NjUiIHkxPSI3MzUiIHkyPSI3MzUiLz48dGV4dCBmaWxsPSIjMDAwMDAwIiBmb250LWZhbWlseT0ic2Fucy1zZXJpZiIgZm9udC1zaXplPSIxNCIgbGVuZ3RoQWRqdXN0PSJzcGFjaW5nIiB0ZXh0TGVuZ3RoPSI4NCIgeD0iMTUyNiIgeT0iNzUyLjIzNDQiPi1TdHJpbmcgdHlwZTwvdGV4dD48dGV4dCBmaWxsPSIjMDAwMDAwIiBmb250LWZhbWlseT0ic2Fucy1zZXJpZiIgZm9udC1zaXplPSIxNCIgbGVuZ3RoQWRqdXN0PSJzcGFjaW5nIiB0ZXh0TGVuZ3RoPSIxMDYiIHg9IjE1MjYiIHk9Ijc2Ny4yMTg4Ij4tU3RyaW5nIHdlYnNpdGU8L3RleHQ+PHRleHQgZmlsbD0iIzAwMDAwMCIgZm9udC1mYW1pbHk9InNhbnMtc2VyaWYiIGZvbnQtc2l6ZT0iMTQiIGxlbmd0aEFkanVzdD0ic3BhY2luZyIgdGV4dExlbmd0aD0iMTEyIiB4PSIxNTI2IiB5PSI3ODIuMjAzMSI+LVN0cmluZyBsb2NhdGlvbjwvdGV4dD48dGV4dCBmaWxsPSIjMDAwMDAwIiBmb250LWZhbWlseT0ic2Fucy1zZXJpZiIgZm9udC1zaXplPSIxNCIgbGVuZ3RoQWRqdXN0PSJzcGFjaW5nIiB0ZXh0TGVuZ3RoPSIxNjgiIHg9IjE1MjYiIHk9Ijc5Ny4xODc1Ij4tQ29udGFjdEluZm8gY29udGFjdEluZm88L3RleHQ+PHRleHQgZmlsbD0iIzAwMDAwMCIgZm9udC1mYW1pbHk9InNhbnMtc2VyaWYiIGZvbnQtc2l6ZT0iMTQiIGxlbmd0aEFkanVzdD0ic3BhY2luZyIgdGV4dExlbmd0aD0iMTQ3IiB4PSIxNTI2IiB5PSI4MTIuMTcxOSI+LUxpc3QmbHQ7Q291cnNlJmd0OyBjb3Vyc2VzPC90ZXh0PjxsaW5lIHN0eWxlPSJzdHJva2U6IzE4MTgxODtzdHJva2Utd2lkdGg6MC41OyIgeDE9IjE1MjEiIHgyPSIxNzY1IiB5MT0iODE3LjkyMTkiIHkyPSI4MTcuOTIxOSIvPjx0ZXh0IGZpbGw9IiMwMDAwMDAiIGZvbnQtZmFtaWx5PSJzYW5zLXNlcmlmIiBmb250LXNpemU9IjE0IiBsZW5ndGhBZGp1c3Q9InNwYWNpbmciIHRleHRMZW5ndGg9IjE4NCIgeD0iMTUyNiIgeT0iODM1LjE1NjMiPitMaXN0Jmx0O0NvdXJzZSZndDsgZ2V0Q291cnNlcygpPC90ZXh0Pjx0ZXh0IGZpbGw9IiMwMDAwMDAiIGZvbnQtZmFtaWx5PSJzYW5zLXNlcmlmIiBmb250LXNpemU9IjE0IiBsZW5ndGhBZGp1c3Q9InNwYWNpbmciIHRleHRMZW5ndGg9IjEyMSIgeD0iMTUyNiIgeT0iODUwLjE0MDYiPitTdHJpbmcgZ2V0VHlwZSgpPC90ZXh0Pjx0ZXh0IGZpbGw9IiMwMDAwMDAiIGZvbnQtZmFtaWx5PSJzYW5zLXNlcmlmIiBmb250LXNpemU9IjE0IiBsZW5ndGhBZGp1c3Q9InNwYWNpbmciIHRleHRMZW5ndGg9IjIwNSIgeD0iMTUyNiIgeT0iODY1LjEyNSI+K0NvbnRhY3RJbmZvIGdldENvbnRhY3RJbmZvKCk8L3RleHQ+PHRleHQgZmlsbD0iIzAwMDAwMCIgZm9udC1mYW1pbHk9InNhbnMtc2VyaWYiIGZvbnQtc2l6ZT0iMTQiIGxlbmd0aEFkanVzdD0ic3BhY2luZyIgdGV4dExlbmd0aD0iMjEyIiB4PSIxNTI2IiB5PSI4ODAuMTA5NCI+K3ZvaWQgYWRkQ291cnNlKENvdXJzZSBjb3Vyc2UpPC90ZXh0Pjx0ZXh0IGZpbGw9IiMwMDAwMDAiIGZvbnQtZmFtaWx5PSJzYW5zLXNlcmlmIiBmb250LXNpemU9IjE0IiBsZW5ndGhBZGp1c3Q9InNwYWNpbmciIHRleHRMZW5ndGg9IjIzNCIgeD0iMTUyNiIgeT0iODk1LjA5MzgiPit2b2lkIHJlbW92ZUNvdXJzZShDb3Vyc2UgY291cnNlKTwvdGV4dD48L2c+PCEtLWNsYXNzIENvbnRhY3RJbmZvLS0+PGcgaWQ9ImVsZW1fQ29udGFjdEluZm8iPjxyZWN0IGNvZGVMaW5lPSI5MyIgZmlsbD0iI0YxRjFGMSIgaGVpZ2h0PSIxMjIuOTIxOSIgaWQ9IkNvbnRhY3RJbmZvIiByeD0iMi41IiByeT0iMi41IiBzdHlsZT0ic3Ryb2tlOiMxODE4MTg7c3Ryb2tlLXdpZHRoOjAuNTsiIHdpZHRoPSIzNDMiIHg9IjEyODAuNSIgeT0iMTAyOC41Ii8+PGVsbGlwc2UgY3g9IjE0MDkuMjUiIGN5PSIxMDQ0LjUiIGZpbGw9IiNDMkMyQzIiIHJ4PSIxMSIgcnk9IjExIiBzdHlsZT0ic3Ryb2tlOiMxODE4MTg7c3Ryb2tlLXdpZHRoOjEuMDsiLz48cGF0aCBkPSJNMTQwNi44NzUsMTA0OC43NSBMMTQwNi44NzUsMTA1MC41IEwxNDExLjgxMjUsMTA1MC41IEwxNDExLjgxMjUsMTA0OC43NSBMMTQwNi44NzUsMTA0OC43NSBaIE0xNDA3LjU2MjUsMTA0OS40Mzc1IFExNDA3LjU2MjUsMTA0OS40Mzc1IDE0MDcuNTYyNSwxMDQwLjI1IEwxNDA1LjgxMjUsMTA0MC4yNSBRMTQwNS44MTI1LDEwNDAuMjUgMTQwNS44MTI1LDEwNDkuNDM3NSBMMTQwNy41NjI1LDEwNDkuNDM3NSBaIE0xNDExLjEyNSwxMDQ5LjQzNzUgTDE0MTIuODc1LDEwNDkuNDM3NSBRMTQxMi44NzUsMTA0OS40Mzc1IDE0MTIuODc1LDEwNDYuNjI1IEwxNDExLjEyNSwxMDQ2LjYyNSBRMTQxMS4xMjUsMTA0Ni42MjUgMTQxMS4xMjUsMTA0OS40Mzc1IFogTTE0MTEuMTI1LDEwNDAuMjUgUTE0MTEuMTI1LDEwNDAuMjUgMTQxMS4xMjUsMTA0My4wNjI1IEwxNDEyLjg3NSwxMDQzLjA2MjUgUTE0MTIuODc1LDEwNDMuMDYyNSAxNDEyLjg3NSwxMDQwLjI1IEwxNDExLjEyNSwxMDQwLjI1IFogTTE0MDYuODc1LDEwNDAuOTM3NSBMMTQxMS44MTI1LDEwNDAuOTM3NSBMMTQxMS44MTI1LDEwMzkuMTg3NSBMMTQwNi44NzUsMTAzOS4xODc1IEwxNDA2Ljg3NSwxMDQwLjkzNzUgWiAiIGZpbGw9IiMwMDAwMDAiLz48dGV4dCBmaWxsPSIjMDAwMDAwIiBmb250LWZhbWlseT0ic2Fucy1zZXJpZiIgZm9udC1zaXplPSIxNCIgbGVuZ3RoQWRqdXN0PSJzcGFjaW5nIiB0ZXh0TGVuZ3RoPSI3NyIgeD0iMTQyOS43NSIgeT0iMTA1MC4yNDIyIj5Db250YWN0SW5mbzwvdGV4dD48bGluZSBzdHlsZT0ic3Ryb2tlOiMxODE4MTg7c3Ryb2tlLXdpZHRoOjAuNTsiIHgxPSIxMjgxLjUiIHgyPSIxNjIyLjUiIHkxPSIxMDYwLjUiIHkyPSIxMDYwLjUiLz48dGV4dCBmaWxsPSIjMDAwMDAwIiBmb250LWZhbWlseT0ic2Fucy1zZXJpZiIgZm9udC1zaXplPSIxNCIgbGVuZ3RoQWRqdXN0PSJzcGFjaW5nIiB0ZXh0TGVuZ3RoPSIxNzUiIHg9IjEyODYuNSIgeT0iMTA3Ny43MzQ0Ij4tTWFwJmx0O1N0cmluZywgU3RyaW5nJmd0OyBpbmZvPC90ZXh0PjxsaW5lIHN0eWxlPSJzdHJva2U6IzE4MTgxODtzdHJva2Utd2lkdGg6MC41OyIgeDE9IjEyODEuNSIgeDI9IjE2MjIuNSIgeTE9IjEwODMuNDg0NCIgeTI9IjEwODMuNDg0NCIvPjx0ZXh0IGZpbGw9IiMwMDAwMDAiIGZvbnQtZmFtaWx5PSJzYW5zLXNlcmlmIiBmb250LXNpemU9IjE0IiBsZW5ndGhBZGp1c3Q9InNwYWNpbmciIHRleHRMZW5ndGg9IjMwMyIgeD0iMTI4Ni41IiB5PSIxMTAwLjcxODgiPit2b2lkIGFkZENvbnRhY3QoU3RyaW5nIHR5cGUsIFN0cmluZyB2YWx1ZSk8L3RleHQ+PHRleHQgZmlsbD0iIzAwMDAwMCIgZm9udC1mYW1pbHk9InNhbnMtc2VyaWYiIGZvbnQtc2l6ZT0iMTQiIGxlbmd0aEFkanVzdD0ic3BhY2luZyIgdGV4dExlbmd0aD0iMjI3IiB4PSIxMjg2LjUiIHk9IjExMTUuNzAzMSI+K3ZvaWQgcmVtb3ZlQ29udGFjdChTdHJpbmcgdHlwZSk8L3RleHQ+PHRleHQgZmlsbD0iIzAwMDAwMCIgZm9udC1mYW1pbHk9InNhbnMtc2VyaWYiIGZvbnQtc2l6ZT0iMTQiIGxlbmd0aEFkanVzdD0ic3BhY2luZyIgdGV4dExlbmd0aD0iMjEyIiB4PSIxMjg2LjUiIHk9IjExMzAuNjg3NSI+K01hcCZsdDtTdHJpbmcsIFN0cmluZyZndDsgZ2V0SW5mbygpPC90ZXh0Pjx0ZXh0IGZpbGw9IiMwMDAwMDAiIGZvbnQtZmFtaWx5PSJzYW5zLXNlcmlmIiBmb250LXNpemU9IjE0IiBsZW5ndGhBZGp1c3Q9InNwYWNpbmciIHRleHRMZW5ndGg9IjMzMSIgeD0iMTI4Ni41IiB5PSIxMTQ1LjY3MTkiPitib29sZWFuIHZhbGlkYXRlSW5mbyhNYXAmbHQ7U3RyaW5nLCBTdHJpbmcmZ3Q7IGluZm8pPC90ZXh0PjwvZz48IS0tY2xhc3MgQ291cnNlLS0+PGcgaWQ9ImVsZW1fQ291cnNlIj48cmVjdCBjb2RlTGluZT0iMTAyIiBmaWxsPSIjRjFGMUYxIiBoZWlnaHQ9IjI1Ny43ODEzIiBpZD0iQ291cnNlIiByeD0iMi41IiByeT0iMi41IiBzdHlsZT0ic3Ryb2tlOiMxODE4MTg7c3Ryb2tlLXdpZHRoOjAuNTsiIHdpZHRoPSIzNTEiIHg9IjE2NTguNSIgeT0iOTYxIi8+PGVsbGlwc2UgY3g9IjE4MDguNzUiIGN5PSI5NzciIGZpbGw9IiNDMkMyQzIiIHJ4PSIxMSIgcnk9IjExIiBzdHlsZT0ic3Ryb2tlOiMxODE4MTg7c3Ryb2tlLXdpZHRoOjEuMDsiLz48cGF0aCBkPSJNMTgwNi4zNzUsOTgxLjI1IEwxODA2LjM3NSw5ODMgTDE4MTEuMzEyNSw5ODMgTDE4MTEuMzEyNSw5ODEuMjUgTDE4MDYuMzc1LDk4MS4yNSBaIE0xODA3LjA2MjUsOTgxLjkzNzUgUTE4MDcuMDYyNSw5ODEuOTM3NSAxODA3LjA2MjUsOTcyLjc1IEwxODA1LjMxMjUsOTcyLjc1IFExODA1LjMxMjUsOTcyLjc1IDE4MDUuMzEyNSw5ODEuOTM3NSBMMTgwNy4wNjI1LDk4MS45Mzc1IFogTTE4MTAuNjI1LDk4MS45Mzc1IEwxODEyLjM3NSw5ODEuOTM3NSBRMTgxMi4zNzUsOTgxLjkzNzUgMTgxMi4zNzUsOTc5LjEyNSBMMTgxMC42MjUsOTc5LjEyNSBRMTgxMC42MjUsOTc5LjEyNSAxODEwLjYyNSw5ODEuOTM3NSBaIE0xODEwLjYyNSw5NzIuNzUgUTE4MTAuNjI1LDk3Mi43NSAxODEwLjYyNSw5NzUuNTYyNSBMMTgxMi4zNzUsOTc1LjU2MjUgUTE4MTIuMzc1LDk3NS41NjI1IDE4MTIuMzc1LDk3Mi43NSBMMTgxMC42MjUsOTcyLjc1IFogTTE4MDYuMzc1LDk3My40Mzc1IEwxODExLjMxMjUsOTczLjQzNzUgTDE4MTEuMzEyNSw5NzEuNjg3NSBMMTgwNi4zNzUsOTcxLjY4NzUgTDE4MDYuMzc1LDk3My40Mzc1IFogIiBmaWxsPSIjMDAwMDAwIi8+PHRleHQgZmlsbD0iIzAwMDAwMCIgZm9udC1mYW1pbHk9InNhbnMtc2VyaWYiIGZvbnQtc2l6ZT0iMTQiIGxlbmd0aEFkanVzdD0ic3BhY2luZyIgdGV4dExlbmd0aD0iNDIiIHg9IjE4MjkuMjUiIHk9Ijk4Mi43NDIyIj5Db3Vyc2U8L3RleHQ+PGxpbmUgc3R5bGU9InN0cm9rZTojMTgxODE4O3N0cm9rZS13aWR0aDowLjU7IiB4MT0iMTY1OS41IiB4Mj0iMjAwOC41IiB5MT0iOTkzIiB5Mj0iOTkzIi8+PHRleHQgZmlsbD0iIzAwMDAwMCIgZm9udC1mYW1pbHk9InNhbnMtc2VyaWYiIGZvbnQtc2l6ZT0iMTQiIGxlbmd0aEFkanVzdD0ic3BhY2luZyIgdGV4dExlbmd0aD0iNTYiIHg9IjE2NjQuNSIgeT0iMTAxMC4yMzQ0Ij4tVVVJRCBpZDwvdGV4dD48dGV4dCBmaWxsPSIjMDAwMDAwIiBmb250LWZhbWlseT0ic2Fucy1zZXJpZiIgZm9udC1zaXplPSIxNCIgbGVuZ3RoQWRqdXN0PSJzcGFjaW5nIiB0ZXh0TGVuZ3RoPSI4NSIgeD0iMTY2NC41IiB5PSIxMDI1LjIxODgiPi1TdHJpbmcgbmFtZTwvdGV4dD48dGV4dCBmaWxsPSIjMDAwMDAwIiBmb250LWZhbWlseT0ic2Fucy1zZXJpZiIgZm9udC1zaXplPSIxNCIgbGVuZ3RoQWRqdXN0PSJzcGFjaW5nIiB0ZXh0TGVuZ3RoPSIxMzMiIHg9IjE2NjQuNSIgeT0iMTA0MC4yMDMxIj4tU3RyaW5nIGRlc2NyaXB0aW9uPC90ZXh0Pjx0ZXh0IGZpbGw9IiMwMDAwMDAiIGZvbnQtZmFtaWx5PSJzYW5zLXNlcmlmIiBmb250LXNpemU9IjE0IiBsZW5ndGhBZGp1c3Q9InNwYWNpbmciIHRleHRMZW5ndGg9IjExMiIgeD0iMTY2NC41IiB5PSIxMDU1LjE4NzUiPi1TdHJpbmcgZHVyYXRpb248L3RleHQ+PHRleHQgZmlsbD0iIzAwMDAwMCIgZm9udC1mYW1pbHk9InNhbnMtc2VyaWYiIGZvbnQtc2l6ZT0iMTQiIGxlbmd0aEFkanVzdD0ic3BhY2luZyIgdGV4dExlbmd0aD0iMjAxIiB4PSIxNjY0LjUiIHk9IjEwNzAuMTcxOSI+LU1pbmltdW1HcmFkZXMgbWluaW11bUdyYWRlczwvdGV4dD48dGV4dCBmaWxsPSIjMDAwMDAwIiBmb250LWZhbWlseT0ic2Fucy1zZXJpZiIgZm9udC1zaXplPSIxNCIgbGVuZ3RoQWRqdXN0PSJzcGFjaW5nIiB0ZXh0TGVuZ3RoPSIxNTAiIHg9IjE2NjQuNSIgeT0iMTA4NS4xNTYzIj4tRG91YmxlIG1pbmltdW1aU2NvcmU8L3RleHQ+PHRleHQgZmlsbD0iIzAwMDAwMCIgZm9udC1mYW1pbHk9InNhbnMtc2VyaWYiIGZvbnQtc2l6ZT0iMTQiIGxlbmd0aEFkanVzdD0ic3BhY2luZyIgdGV4dExlbmd0aD0iMTk2IiB4PSIxNjY0LjUiIHk9IjExMDAuMTQwNiI+LUxpc3QmbHQ7SW5zdGl0dXRpb24mZ3Q7IG9mZmVyZWRCeTwvdGV4dD48dGV4dCBmaWxsPSIjMDAwMDAwIiBmb250LWZhbWlseT0ic2Fucy1zZXJpZiIgZm9udC1zaXplPSIxNCIgbGVuZ3RoQWRqdXN0PSJzcGFjaW5nIiB0ZXh0TGVuZ3RoPSIyMTAiIHg9IjE2NjQuNSIgeT0iMTExNS4xMjUiPi1SZWxhdGVkQ2FyZWVycyByZWxhdGVkQ2FyZWVyczwvdGV4dD48bGluZSBzdHlsZT0ic3Ryb2tlOiMxODE4MTg7c3Ryb2tlLXdpZHRoOjAuNTsiIHgxPSIxNjU5LjUiIHgyPSIyMDA4LjUiIHkxPSIxMTIwLjg3NSIgeTI9IjExMjAuODc1Ii8+PHRleHQgZmlsbD0iIzAwMDAwMCIgZm9udC1mYW1pbHk9InNhbnMtc2VyaWYiIGZvbnQtc2l6ZT0iMTQiIGxlbmd0aEFkanVzdD0ic3BhY2luZyIgdGV4dExlbmd0aD0iMTg2IiB4PSIxNjY0LjUiIHk9IjExMzguMTA5NCI+K0RvdWJsZSBnZXRNaW5pbXVtWlNjb3JlKCk8L3RleHQ+PHRleHQgZmlsbD0iIzAwMDAwMCIgZm9udC1mYW1pbHk9InNhbnMtc2VyaWYiIGZvbnQtc2l6ZT0iMTQiIGxlbmd0aEFkanVzdD0ic3BhY2luZyIgdGV4dExlbmd0aD0iMjMzIiB4PSIxNjY0LjUiIHk9IjExNTMuMDkzOCI+K0xpc3QmbHQ7SW5zdGl0dXRpb24mZ3Q7IGdldE9mZmVyZWRCeSgpPC90ZXh0Pjx0ZXh0IGZpbGw9IiMwMDAwMDAiIGZvbnQtZmFtaWx5PSJzYW5zLXNlcmlmIiBmb250LXNpemU9IjE0IiBsZW5ndGhBZGp1c3Q9InNwYWNpbmciIHRleHRMZW5ndGg9IjIzNyIgeD0iMTY2NC41IiB5PSIxMTY4LjA3ODEiPitNaW5pbXVtR3JhZGVzIGdldE1pbmltdW1HcmFkZXMoKTwvdGV4dD48dGV4dCBmaWxsPSIjMDAwMDAwIiBmb250LWZhbWlseT0ic2Fucy1zZXJpZiIgZm9udC1zaXplPSIxNCIgbGVuZ3RoQWRqdXN0PSJzcGFjaW5nIiB0ZXh0TGVuZ3RoPSIyNDciIHg9IjE2NjQuNSIgeT0iMTE4My4wNjI1Ij4rUmVsYXRlZENhcmVlcnMgZ2V0UmVsYXRlZENhcmVlcnMoKTwvdGV4dD48dGV4dCBmaWxsPSIjMDAwMDAwIiBmb250LWZhbWlseT0ic2Fucy1zZXJpZiIgZm9udC1zaXplPSIxNCIgbGVuZ3RoQWRqdXN0PSJzcGFjaW5nIiB0ZXh0TGVuZ3RoPSIzMTciIHg9IjE2NjQuNSIgeT0iMTE5OC4wNDY5Ij4rdm9pZCBhZGRJbnN0aXR1dGlvbihJbnN0aXR1dGlvbiBpbnN0aXR1dGlvbik8L3RleHQ+PHRleHQgZmlsbD0iIzAwMDAwMCIgZm9udC1mYW1pbHk9InNhbnMtc2VyaWYiIGZvbnQtc2l6ZT0iMTQiIGxlbmd0aEFkanVzdD0ic3BhY2luZyIgdGV4dExlbmd0aD0iMzM5IiB4PSIxNjY0LjUiIHk9IjEyMTMuMDMxMyI+K3ZvaWQgcmVtb3ZlSW5zdGl0dXRpb24oSW5zdGl0dXRpb24gaW5zdGl0dXRpb24pPC90ZXh0PjwvZz48IS0tY2xhc3MgTWluaW11bUdyYWRlcy0tPjxnIGlkPSJlbGVtX01pbmltdW1HcmFkZXMiPjxyZWN0IGNvZGVMaW5lPSIxMjAiIGZpbGw9IiNGMUYxRjEiIGhlaWdodD0iMTIyLjkyMTkiIGlkPSJNaW5pbXVtR3JhZGVzIiByeD0iMi41IiByeT0iMi41IiBzdHlsZT0ic3Ryb2tlOiMxODE4MTg7c3Ryb2tlLXdpZHRoOjAuNTsiIHdpZHRoPSIzNzEiIHg9IjEzMDQuNSIgeT0iMTMyNCIvPjxlbGxpcHNlIGN4PSIxNDM5LjI1IiBjeT0iMTM0MCIgZmlsbD0iI0MyQzJDMiIgcng9IjExIiByeT0iMTEiIHN0eWxlPSJzdHJva2U6IzE4MTgxODtzdHJva2Utd2lkdGg6MS4wOyIvPjxwYXRoIGQ9Ik0xNDM2Ljg3NSwxMzQ0LjI1IEwxNDM2Ljg3NSwxMzQ2IEwxNDQxLjgxMjUsMTM0NiBMMTQ0MS44MTI1LDEzNDQuMjUgTDE0MzYuODc1LDEzNDQuMjUgWiBNMTQzNy41NjI1LDEzNDQuOTM3NSBRMTQzNy41NjI1LDEzNDQuOTM3NSAxNDM3LjU2MjUsMTMzNS43NSBMMTQzNS44MTI1LDEzMzUuNzUgUTE0MzUuODEyNSwxMzM1Ljc1IDE0MzUuODEyNSwxMzQ0LjkzNzUgTDE0MzcuNTYyNSwxMzQ0LjkzNzUgWiBNMTQ0MS4xMjUsMTM0NC45Mzc1IEwxNDQyLjg3NSwxMzQ0LjkzNzUgUTE0NDIuODc1LDEzNDQuOTM3NSAxNDQyLjg3NSwxMzQyLjEyNSBMMTQ0MS4xMjUsMTM0Mi4xMjUgUTE0NDEuMTI1LDEzNDIuMTI1IDE0NDEuMTI1LDEzNDQuOTM3NSBaIE0xNDQxLjEyNSwxMzM1Ljc1IFExNDQxLjEyNSwxMzM1Ljc1IDE0NDEuMTI1LDEzMzguNTYyNSBMMTQ0Mi44NzUsMTMzOC41NjI1IFExNDQyLjg3NSwxMzM4LjU2MjUgMTQ0Mi44NzUsMTMzNS43NSBMMTQ0MS4xMjUsMTMzNS43NSBaIE0xNDM2Ljg3NSwxMzM2LjQzNzUgTDE0NDEuODEyNSwxMzM2LjQzNzUgTDE0NDEuODEyNSwxMzM0LjY4NzUgTDE0MzYuODc1LDEzMzQuNjg3NSBMMTQzNi44NzUsMTMzNi40Mzc1IFogIiBmaWxsPSIjMDAwMDAwIi8+PHRleHQgZmlsbD0iIzAwMDAwMCIgZm9udC1mYW1pbHk9InNhbnMtc2VyaWYiIGZvbnQtc2l6ZT0iMTQiIGxlbmd0aEFkanVzdD0ic3BhY2luZyIgdGV4dExlbmd0aD0iOTMiIHg9IjE0NTkuNzUiIHk9IjEzNDUuNzQyMiI+TWluaW11bUdyYWRlczwvdGV4dD48bGluZSBzdHlsZT0ic3Ryb2tlOiMxODE4MTg7c3Ryb2tlLXdpZHRoOjAuNTsiIHgxPSIxMzA1LjUiIHgyPSIxNjc0LjUiIHkxPSIxMzU2IiB5Mj0iMTM1NiIvPjx0ZXh0IGZpbGw9IiMwMDAwMDAiIGZvbnQtZmFtaWx5PSJzYW5zLXNlcmlmIiBmb250LXNpemU9IjE0IiBsZW5ndGhBZGp1c3Q9InNwYWNpbmciIHRleHRMZW5ndGg9IjE4OSIgeD0iMTMxMC41IiB5PSIxMzczLjIzNDQiPi1NYXAmbHQ7U3RyaW5nLCBTdHJpbmcmZ3Q7IGdyYWRlczwvdGV4dD48bGluZSBzdHlsZT0ic3Ryb2tlOiMxODE4MTg7c3Ryb2tlLXdpZHRoOjAuNTsiIHgxPSIxMzA1LjUiIHgyPSIxNjc0LjUiIHkxPSIxMzc4Ljk4NDQiIHkyPSIxMzc4Ljk4NDQiLz48dGV4dCBmaWxsPSIjMDAwMDAwIiBmb250LWZhbWlseT0ic2Fucy1zZXJpZiIgZm9udC1zaXplPSIxNCIgbGVuZ3RoQWRqdXN0PSJzcGFjaW5nIiB0ZXh0TGVuZ3RoPSIzMTAiIHg9IjEzMTAuNSIgeT0iMTM5Ni4yMTg4Ij4rdm9pZCBhZGRHcmFkZShTdHJpbmcgc3ViamVjdCwgU3RyaW5nIGdyYWRlKTwvdGV4dD48dGV4dCBmaWxsPSIjMDAwMDAwIiBmb250LWZhbWlseT0ic2Fucy1zZXJpZiIgZm9udC1zaXplPSIxNCIgbGVuZ3RoQWRqdXN0PSJzcGFjaW5nIiB0ZXh0TGVuZ3RoPSIyMzQiIHg9IjEzMTAuNSIgeT0iMTQxMS4yMDMxIj4rdm9pZCByZW1vdmVHcmFkZShTdHJpbmcgc3ViamVjdCk8L3RleHQ+PHRleHQgZmlsbD0iIzAwMDAwMCIgZm9udC1mYW1pbHk9InNhbnMtc2VyaWYiIGZvbnQtc2l6ZT0iMTQiIGxlbmd0aEFkanVzdD0ic3BhY2luZyIgdGV4dExlbmd0aD0iMjI2IiB4PSIxMzEwLjUiIHk9IjE0MjYuMTg3NSI+K01hcCZsdDtTdHJpbmcsIFN0cmluZyZndDsgZ2V0R3JhZGVzKCk8L3RleHQ+PHRleHQgZmlsbD0iIzAwMDAwMCIgZm9udC1mYW1pbHk9InNhbnMtc2VyaWYiIGZvbnQtc2l6ZT0iMTQiIGxlbmd0aEFkanVzdD0ic3BhY2luZyIgdGV4dExlbmd0aD0iMzU5IiB4PSIxMzEwLjUiIHk9IjE0NDEuMTcxOSI+K2Jvb2xlYW4gdmFsaWRhdGVHcmFkZXMoTWFwJmx0O1N0cmluZywgU3RyaW5nJmd0OyBncmFkZXMpPC90ZXh0PjwvZz48IS0tY2xhc3MgUmVsYXRlZENhcmVlcnMtLT48ZyBpZD0iZWxlbV9SZWxhdGVkQ2FyZWVycyI+PHJlY3QgY29kZUxpbmU9IjEyOSIgZmlsbD0iI0YxRjFGMSIgaGVpZ2h0PSIxMDcuOTM3NSIgaWQ9IlJlbGF0ZWRDYXJlZXJzIiByeD0iMi41IiByeT0iMi41IiBzdHlsZT0ic3Ryb2tlOiMxODE4MTg7c3Ryb2tlLXdpZHRoOjAuNTsiIHdpZHRoPSIyNDYiIHg9IjE3MTEiIHk9IjEzMzEuNSIvPjxlbGxpcHNlIGN4PSIxNzgwLjc1IiBjeT0iMTM0Ny41IiBmaWxsPSIjQzJDMkMyIiByeD0iMTEiIHJ5PSIxMSIgc3R5bGU9InN0cm9rZTojMTgxODE4O3N0cm9rZS13aWR0aDoxLjA7Ii8+PHBhdGggZD0iTTE3NzguMzc1LDEzNTEuNzUgTDE3NzguMzc1LDEzNTMuNSBMMTc4My4zMTI1LDEzNTMuNSBMMTc4My4zMTI1LDEzNTEuNzUgTDE3NzguMzc1LDEzNTEuNzUgWiBNMTc3OS4wNjI1LDEzNTIuNDM3NSBRMTc3OS4wNjI1LDEzNTIuNDM3NSAxNzc5LjA2MjUsMTM0My4yNSBMMTc3Ny4zMTI1LDEzNDMuMjUgUTE3NzcuMzEyNSwxMzQzLjI1IDE3NzcuMzEyNSwxMzUyLjQzNzUgTDE3NzkuMDYyNSwxMzUyLjQzNzUgWiBNMTc4Mi42MjUsMTM1Mi40Mzc1IEwxNzg0LjM3NSwxMzUyLjQzNzUgUTE3ODQuMzc1LDEzNTIuNDM3NSAxNzg0LjM3NSwxMzQ5LjYyNSBMMTc4Mi42MjUsMTM0OS42MjUgUTE3ODIuNjI1LDEzNDkuNjI1IDE3ODIuNjI1LDEzNTIuNDM3NSBaIE0xNzgyLjYyNSwxMzQzLjI1IFExNzgyLjYyNSwxMzQzLjI1IDE3ODIuNjI1LDEzNDYuMDYyNSBMMTc4NC4zNzUsMTM0Ni4wNjI1IFExNzg0LjM3NSwxMzQ2LjA2MjUgMTc4NC4zNzUsMTM0My4yNSBMMTc4Mi42MjUsMTM0My4yNSBaIE0xNzc4LjM3NSwxMzQzLjkzNzUgTDE3ODMuMzEyNSwxMzQzLjkzNzUgTDE3ODMuMzEyNSwxMzQyLjE4NzUgTDE3NzguMzc1LDEzNDIuMTg3NSBMMTc3OC4zNzUsMTM0My45Mzc1IFogIiBmaWxsPSIjMDAwMDAwIi8+PHRleHQgZmlsbD0iIzAwMDAwMCIgZm9udC1mYW1pbHk9InNhbnMtc2VyaWYiIGZvbnQtc2l6ZT0iMTQiIGxlbmd0aEFkanVzdD0ic3BhY2luZyIgdGV4dExlbmd0aD0iOTgiIHg9IjE4MDEuMjUiIHk9IjEzNTMuMjQyMiI+UmVsYXRlZENhcmVlcnM8L3RleHQ+PGxpbmUgc3R5bGU9InN0cm9rZTojMTgxODE4O3N0cm9rZS13aWR0aDowLjU7IiB4MT0iMTcxMiIgeDI9IjE5NTYiIHkxPSIxMzYzLjUiIHkyPSIxMzYzLjUiLz48dGV4dCBmaWxsPSIjMDAwMDAwIiBmb250LWZhbWlseT0ic2Fucy1zZXJpZiIgZm9udC1zaXplPSIxNCIgbGVuZ3RoQWRqdXN0PSJzcGFjaW5nIiB0ZXh0TGVuZ3RoPSIxNDciIHg9IjE3MTciIHk9IjEzODAuNzM0NCI+LUxpc3QmbHQ7U3RyaW5nJmd0OyBjYXJlZXJzPC90ZXh0PjxsaW5lIHN0eWxlPSJzdHJva2U6IzE4MTgxODtzdHJva2Utd2lkdGg6MC41OyIgeDE9IjE3MTIiIHgyPSIxOTU2IiB5MT0iMTM4Ni40ODQ0IiB5Mj0iMTM4Ni40ODQ0Ii8+PHRleHQgZmlsbD0iIzAwMDAwMCIgZm9udC1mYW1pbHk9InNhbnMtc2VyaWYiIGZvbnQtc2l6ZT0iMTQiIGxlbmd0aEFkanVzdD0ic3BhY2luZyIgdGV4dExlbmd0aD0iMjEyIiB4PSIxNzE3IiB5PSIxNDAzLjcxODgiPit2b2lkIGFkZENhcmVlcihTdHJpbmcgY2FyZWVyKTwvdGV4dD48dGV4dCBmaWxsPSIjMDAwMDAwIiBmb250LWZhbWlseT0ic2Fucy1zZXJpZiIgZm9udC1zaXplPSIxNCIgbGVuZ3RoQWRqdXN0PSJzcGFjaW5nIiB0ZXh0TGVuZ3RoPSIyMzQiIHg9IjE3MTciIHk9IjE0MTguNzAzMSI+K3ZvaWQgcmVtb3ZlQ2FyZWVyKFN0cmluZyBjYXJlZXIpPC90ZXh0Pjx0ZXh0IGZpbGw9IiMwMDAwMDAiIGZvbnQtZmFtaWx5PSJzYW5zLXNlcmlmIiBmb250LXNpemU9IjE0IiBsZW5ndGhBZGp1c3Q9InNwYWNpbmciIHRleHRMZW5ndGg9IjE4NCIgeD0iMTcxNyIgeT0iMTQzMy42ODc1Ij4rTGlzdCZsdDtTdHJpbmcmZ3Q7IGdldENhcmVlcnMoKTwvdGV4dD48L2c+PCEtLWNsYXNzIENhcmVlci0tPjxnIGlkPSJlbGVtX0NhcmVlciI+PHJlY3QgY29kZUxpbmU9IjEzNyIgZmlsbD0iI0YxRjFGMSIgaGVpZ2h0PSIyMTIuODI4MSIgaWQ9IkNhcmVlciIgcng9IjIuNSIgcnk9IjIuNSIgc3R5bGU9InN0cm9rZTojMTgxODE4O3N0cm9rZS13aWR0aDowLjU7IiB3aWR0aD0iMjU5IiB4PSIxOTkyLjUiIHk9IjEyNzkiLz48ZWxsaXBzZSBjeD0iMjA5Ni43NSIgY3k9IjEyOTUiIGZpbGw9IiNDMkMyQzIiIHJ4PSIxMSIgcnk9IjExIiBzdHlsZT0ic3Ryb2tlOiMxODE4MTg7c3Ryb2tlLXdpZHRoOjEuMDsiLz48cGF0aCBkPSJNMjA5NC4zNzUsMTI5OS4yNSBMMjA5NC4zNzUsMTMwMSBMMjA5OS4zMTI1LDEzMDEgTDIwOTkuMzEyNSwxMjk5LjI1IEwyMDk0LjM3NSwxMjk5LjI1IFogTTIwOTUuMDYyNSwxMjk5LjkzNzUgUTIwOTUuMDYyNSwxMjk5LjkzNzUgMjA5NS4wNjI1LDEyOTAuNzUgTDIwOTMuMzEyNSwxMjkwLjc1IFEyMDkzLjMxMjUsMTI5MC43NSAyMDkzLjMxMjUsMTI5OS45Mzc1IEwyMDk1LjA2MjUsMTI5OS45Mzc1IFogTTIwOTguNjI1LDEyOTkuOTM3NSBMMjEwMC4zNzUsMTI5OS45Mzc1IFEyMTAwLjM3NSwxMjk5LjkzNzUgMjEwMC4zNzUsMTI5Ny4xMjUgTDIwOTguNjI1LDEyOTcuMTI1IFEyMDk4LjYyNSwxMjk3LjEyNSAyMDk4LjYyNSwxMjk5LjkzNzUgWiBNMjA5OC42MjUsMTI5MC43NSBRMjA5OC42MjUsMTI5MC43NSAyMDk4LjYyNSwxMjkzLjU2MjUgTDIxMDAuMzc1LDEyOTMuNTYyNSBRMjEwMC4zNzUsMTI5My41NjI1IDIxMDAuMzc1LDEyOTAuNzUgTDIwOTguNjI1LDEyOTAuNzUgWiBNMjA5NC4zNzUsMTI5MS40Mzc1IEwyMDk5LjMxMjUsMTI5MS40Mzc1IEwyMDk5LjMxMjUsMTI4OS42ODc1IEwyMDk0LjM3NSwxMjg5LjY4NzUgTDIwOTQuMzc1LDEyOTEuNDM3NSBaICIgZmlsbD0iIzAwMDAwMCIvPjx0ZXh0IGZpbGw9IiMwMDAwMDAiIGZvbnQtZmFtaWx5PSJzYW5zLXNlcmlmIiBmb250LXNpemU9IjE0IiBsZW5ndGhBZGp1c3Q9InNwYWNpbmciIHRleHRMZW5ndGg9IjQyIiB4PSIyMTE3LjI1IiB5PSIxMzAwLjc0MjIiPkNhcmVlcjwvdGV4dD48bGluZSBzdHlsZT0ic3Ryb2tlOiMxODE4MTg7c3Ryb2tlLXdpZHRoOjAuNTsiIHgxPSIxOTkzLjUiIHgyPSIyMjUwLjUiIHkxPSIxMzExIiB5Mj0iMTMxMSIvPjx0ZXh0IGZpbGw9IiMwMDAwMDAiIGZvbnQtZmFtaWx5PSJzYW5zLXNlcmlmIiBmb250LXNpemU9IjE0IiBsZW5ndGhBZGp1c3Q9InNwYWNpbmciIHRleHRMZW5ndGg9Ijg0IiB4PSIxOTk4LjUiIHk9IjEzMjguMjM0NCI+LVN0cmluZyBjb2RlPC90ZXh0Pjx0ZXh0IGZpbGw9IiMwMDAwMDAiIGZvbnQtZmFtaWx5PSJzYW5zLXNlcmlmIiBmb250LXNpemU9IjE0IiBsZW5ndGhBZGp1c3Q9InNwYWNpbmciIHRleHRMZW5ndGg9IjkxIiB4PSIxOTk4LjUiIHk9IjEzNDMuMjE4OCI+LVN0cmluZyB0aXRsZTwvdGV4dD48dGV4dCBmaWxsPSIjMDAwMDAwIiBmb250LWZhbWlseT0ic2Fucy1zZXJpZiIgZm9udC1zaXplPSIxNCIgbGVuZ3RoQWRqdXN0PSJzcGFjaW5nIiB0ZXh0TGVuZ3RoPSIxMzMiIHg9IjE5OTguNSIgeT0iMTM1OC4yMDMxIj4tU3RyaW5nIGRlc2NyaXB0aW9uPC90ZXh0Pjx0ZXh0IGZpbGw9IiMwMDAwMDAiIGZvbnQtZmFtaWx5PSJzYW5zLXNlcmlmIiBmb250LXNpemU9IjE0IiBsZW5ndGhBZGp1c3Q9InNwYWNpbmciIHRleHRMZW5ndGg9IjExMiIgeD0iMTk5OC41IiB5PSIxMzczLjE4NzUiPi1TdHJpbmcgY2F0ZWdvcnk8L3RleHQ+PHRleHQgZmlsbD0iIzAwMDAwMCIgZm9udC1mYW1pbHk9InNhbnMtc2VyaWYiIGZvbnQtc2l6ZT0iMTQiIGxlbmd0aEFkanVzdD0ic3BhY2luZyIgdGV4dExlbmd0aD0iMjEwIiB4PSIxOTk4LjUiIHk9IjEzODguMTcxOSI+LVJlcXVpcmVkU2tpbGxzIHJlcXVpcmVkU2tpbGxzPC90ZXh0Pjx0ZXh0IGZpbGw9IiMwMDAwMDAiIGZvbnQtZmFtaWx5PSJzYW5zLXNlcmlmIiBmb250LXNpemU9IjE0IiBsZW5ndGhBZGp1c3Q9InNwYWNpbmciIHRleHRMZW5ndGg9IjIxMCIgeD0iMTk5OC41IiB5PSIxNDAzLjE1NjMiPi1SZWxhdGVkQ291cnNlcyByZWxhdGVkQ291cnNlczwvdGV4dD48dGV4dCBmaWxsPSIjMDAwMDAwIiBmb250LWZhbWlseT0ic2Fucy1zZXJpZiIgZm9udC1zaXplPSIxNCIgbGVuZ3RoQWRqdXN0PSJzcGFjaW5nIiB0ZXh0TGVuZ3RoPSIxOTYiIHg9IjE5OTguNSIgeT0iMTQxOC4xNDA2Ij4tRXh0ZXJuYWxMaW5rcyBleHRlcm5hbExpbmtzPC90ZXh0PjxsaW5lIHN0eWxlPSJzdHJva2U6IzE4MTgxODtzdHJva2Utd2lkdGg6MC41OyIgeDE9IjE5OTMuNSIgeDI9IjIyNTAuNSIgeTE9IjE0MjMuODkwNiIgeTI9IjE0MjMuODkwNiIvPjx0ZXh0IGZpbGw9IiMwMDAwMDAiIGZvbnQtZmFtaWx5PSJzYW5zLXNlcmlmIiBmb250LXNpemU9IjE0IiBsZW5ndGhBZGp1c3Q9InNwYWNpbmciIHRleHRMZW5ndGg9IjEyMSIgeD0iMTk5OC41IiB5PSIxNDQxLjEyNSI+K1N0cmluZyBnZXRDb2RlKCk8L3RleHQ+PHRleHQgZmlsbD0iIzAwMDAwMCIgZm9udC1mYW1pbHk9InNhbnMtc2VyaWYiIGZvbnQtc2l6ZT0iMTQiIGxlbmd0aEFkanVzdD0ic3BhY2luZyIgdGV4dExlbmd0aD0iMjQ3IiB4PSIxOTk4LjUiIHk9IjE0NTYuMTA5NCI+K1JlcXVpcmVkU2tpbGxzIGdldFJlcXVpcmVkU2tpbGxzKCk8L3RleHQ+PHRleHQgZmlsbD0iIzAwMDAwMCIgZm9udC1mYW1pbHk9InNhbnMtc2VyaWYiIGZvbnQtc2l6ZT0iMTQiIGxlbmd0aEFkanVzdD0ic3BhY2luZyIgdGV4dExlbmd0aD0iMjQ3IiB4PSIxOTk4LjUiIHk9IjE0NzEuMDkzOCI+K1JlbGF0ZWRDb3Vyc2VzIGdldFJlbGF0ZWRDb3Vyc2VzKCk8L3RleHQ+PHRleHQgZmlsbD0iIzAwMDAwMCIgZm9udC1mYW1pbHk9InNhbnMtc2VyaWYiIGZvbnQtc2l6ZT0iMTQiIGxlbmd0aEFkanVzdD0ic3BhY2luZyIgdGV4dExlbmd0aD0iMjMzIiB4PSIxOTk4LjUiIHk9IjE0ODYuMDc4MSI+K0V4dGVybmFsTGlua3MgZ2V0RXh0ZXJuYWxMaW5rcygpPC90ZXh0PjwvZz48IS0tY2xhc3MgUmVxdWlyZWRTa2lsbHMtLT48ZyBpZD0iZWxlbV9SZXF1aXJlZFNraWxscyI+PHJlY3QgY29kZUxpbmU9IjE1MiIgZmlsbD0iI0YxRjFGMSIgaGVpZ2h0PSIxMDcuOTM3NSIgaWQ9IlJlcXVpcmVkU2tpbGxzIiByeD0iMi41IiByeT0iMi41IiBzdHlsZT0ic3Ryb2tlOiMxODE4MTg7c3Ryb2tlLXdpZHRoOjAuNTsiIHdpZHRoPSIyMzIiIHg9IjE1NjQiIHk9IjE1NTkuNSIvPjxlbGxpcHNlIGN4PSIxNjI2Ljc1IiBjeT0iMTU3NS41IiBmaWxsPSIjQzJDMkMyIiByeD0iMTEiIHJ5PSIxMSIgc3R5bGU9InN0cm9rZTojMTgxODE4O3N0cm9rZS13aWR0aDoxLjA7Ii8+PHBhdGggZD0iTTE2MjQuMzc1LDE1NzkuNzUgTDE2MjQuMzc1LDE1ODEuNSBMMTYyOS4zMTI1LDE1ODEuNSBMMTYyOS4zMTI1LDE1NzkuNzUgTDE2MjQuMzc1LDE1NzkuNzUgWiBNMTYyNS4wNjI1LDE1ODAuNDM3NSBRMTYyNS4wNjI1LDE1ODAuNDM3NSAxNjI1LjA2MjUsMTU3MS4yNSBMMTYyMy4zMTI1LDE1NzEuMjUgUTE2MjMuMzEyNSwxNTcxLjI1IDE2MjMuMzEyNSwxNTgwLjQzNzUgTDE2MjUuMDYyNSwxNTgwLjQzNzUgWiBNMTYyOC42MjUsMTU4MC40Mzc1IEwxNjMwLjM3NSwxNTgwLjQzNzUgUTE2MzAuMzc1LDE1ODAuNDM3NSAxNjMwLjM3NSwxNTc3LjYyNSBMMTYyOC42MjUsMTU3Ny42MjUgUTE2MjguNjI1LDE1NzcuNjI1IDE2MjguNjI1LDE1ODAuNDM3NSBaIE0xNjI4LjYyNSwxNTcxLjI1IFExNjI4LjYyNSwxNTcxLjI1IDE2MjguNjI1LDE1NzQuMDYyNSBMMTYzMC4zNzUsMTU3NC4wNjI1IFExNjMwLjM3NSwxNTc0LjA2MjUgMTYzMC4zNzUsMTU3MS4yNSBMMTYyOC42MjUsMTU3MS4yNSBaIE0xNjI0LjM3NSwxNTcxLjkzNzUgTDE2MjkuMzEyNSwxNTcxLjkzNzUgTDE2MjkuMzEyNSwxNTcwLjE4NzUgTDE2MjQuMzc1LDE1NzAuMTg3NSBMMTYyNC4zNzUsMTU3MS45Mzc1IFogIiBmaWxsPSIjMDAwMDAwIi8+PHRleHQgZmlsbD0iIzAwMDAwMCIgZm9udC1mYW1pbHk9InNhbnMtc2VyaWYiIGZvbnQtc2l6ZT0iMTQiIGxlbmd0aEFkanVzdD0ic3BhY2luZyIgdGV4dExlbmd0aD0iOTgiIHg9IjE2NDcuMjUiIHk9IjE1ODEuMjQyMiI+UmVxdWlyZWRTa2lsbHM8L3RleHQ+PGxpbmUgc3R5bGU9InN0cm9rZTojMTgxODE4O3N0cm9rZS13aWR0aDowLjU7IiB4MT0iMTU2NSIgeDI9IjE3OTUiIHkxPSIxNTkxLjUiIHkyPSIxNTkxLjUiLz48dGV4dCBmaWxsPSIjMDAwMDAwIiBmb250LWZhbWlseT0ic2Fucy1zZXJpZiIgZm9udC1zaXplPSIxNCIgbGVuZ3RoQWRqdXN0PSJzcGFjaW5nIiB0ZXh0TGVuZ3RoPSIxNDAiIHg9IjE1NzAiIHk9IjE2MDguNzM0NCI+LUxpc3QmbHQ7U3RyaW5nJmd0OyBza2lsbHM8L3RleHQ+PGxpbmUgc3R5bGU9InN0cm9rZTojMTgxODE4O3N0cm9rZS13aWR0aDowLjU7IiB4MT0iMTU2NSIgeDI9IjE3OTUiIHkxPSIxNjE0LjQ4NDQiIHkyPSIxNjE0LjQ4NDQiLz48dGV4dCBmaWxsPSIjMDAwMDAwIiBmb250LWZhbWlseT0ic2Fucy1zZXJpZiIgZm9udC1zaXplPSIxNCIgbGVuZ3RoQWRqdXN0PSJzcGFjaW5nIiB0ZXh0TGVuZ3RoPSIxOTgiIHg9IjE1NzAiIHk9IjE2MzEuNzE4OCI+K3ZvaWQgYWRkU2tpbGwoU3RyaW5nIHNraWxsKTwvdGV4dD48dGV4dCBmaWxsPSIjMDAwMDAwIiBmb250LWZhbWlseT0ic2Fucy1zZXJpZiIgZm9udC1zaXplPSIxNCIgbGVuZ3RoQWRqdXN0PSJzcGFjaW5nIiB0ZXh0TGVuZ3RoPSIyMjAiIHg9IjE1NzAiIHk9IjE2NDYuNzAzMSI+K3ZvaWQgcmVtb3ZlU2tpbGwoU3RyaW5nIHNraWxsKTwvdGV4dD48dGV4dCBmaWxsPSIjMDAwMDAwIiBmb250LWZhbWlseT0ic2Fucy1zZXJpZiIgZm9udC1zaXplPSIxNCIgbGVuZ3RoQWRqdXN0PSJzcGFjaW5nIiB0ZXh0TGVuZ3RoPSIxNzciIHg9IjE1NzAiIHk9IjE2NjEuNjg3NSI+K0xpc3QmbHQ7U3RyaW5nJmd0OyBnZXRTa2lsbHMoKTwvdGV4dD48L2c+PCEtLWNsYXNzIFJlbGF0ZWRDb3Vyc2VzLS0+PGcgaWQ9ImVsZW1fUmVsYXRlZENvdXJzZXMiPjxyZWN0IGNvZGVMaW5lPSIxNjAiIGZpbGw9IiNGMUYxRjEiIGhlaWdodD0iMTA3LjkzNzUiIGlkPSJSZWxhdGVkQ291cnNlcyIgcng9IjIuNSIgcnk9IjIuNSIgc3R5bGU9InN0cm9rZTojMTgxODE4O3N0cm9rZS13aWR0aDowLjU7IiB3aWR0aD0iMjQ2IiB4PSIxODMxIiB5PSIxNTU5LjUiLz48ZWxsaXBzZSBjeD0iMTkwMC43NSIgY3k9IjE1NzUuNSIgZmlsbD0iI0MyQzJDMiIgcng9IjExIiByeT0iMTEiIHN0eWxlPSJzdHJva2U6IzE4MTgxODtzdHJva2Utd2lkdGg6MS4wOyIvPjxwYXRoIGQ9Ik0xODk4LjM3NSwxNTc5Ljc1IEwxODk4LjM3NSwxNTgxLjUgTDE5MDMuMzEyNSwxNTgxLjUgTDE5MDMuMzEyNSwxNTc5Ljc1IEwxODk4LjM3NSwxNTc5Ljc1IFogTTE4OTkuMDYyNSwxNTgwLjQzNzUgUTE4OTkuMDYyNSwxNTgwLjQzNzUgMTg5OS4wNjI1LDE1NzEuMjUgTDE4OTcuMzEyNSwxNTcxLjI1IFExODk3LjMxMjUsMTU3MS4yNSAxODk3LjMxMjUsMTU4MC40Mzc1IEwxODk5LjA2MjUsMTU4MC40Mzc1IFogTTE5MDIuNjI1LDE1ODAuNDM3NSBMMTkwNC4zNzUsMTU4MC40Mzc1IFExOTA0LjM3NSwxNTgwLjQzNzUgMTkwNC4zNzUsMTU3Ny42MjUgTDE5MDIuNjI1LDE1NzcuNjI1IFExOTAyLjYyNSwxNTc3LjYyNSAxOTAyLjYyNSwxNTgwLjQzNzUgWiBNMTkwMi42MjUsMTU3MS4yNSBRMTkwMi42MjUsMTU3MS4yNSAxOTAyLjYyNSwxNTc0LjA2MjUgTDE5MDQuMzc1LDE1NzQuMDYyNSBRMTkwNC4zNzUsMTU3NC4wNjI1IDE5MDQuMzc1LDE1NzEuMjUgTDE5MDIuNjI1LDE1NzEuMjUgWiBNMTg5OC4zNzUsMTU3MS45Mzc1IEwxOTAzLjMxMjUsMTU3MS45Mzc1IEwxOTAzLjMxMjUsMTU3MC4xODc1IEwxODk4LjM3NSwxNTcwLjE4NzUgTDE4OTguMzc1LDE1NzEuOTM3NSBaICIgZmlsbD0iIzAwMDAwMCIvPjx0ZXh0IGZpbGw9IiMwMDAwMDAiIGZvbnQtZmFtaWx5PSJzYW5zLXNlcmlmIiBmb250LXNpemU9IjE0IiBsZW5ndGhBZGp1c3Q9InNwYWNpbmciIHRleHRMZW5ndGg9Ijk4IiB4PSIxOTIxLjI1IiB5PSIxNTgxLjI0MjIiPlJlbGF0ZWRDb3Vyc2VzPC90ZXh0PjxsaW5lIHN0eWxlPSJzdHJva2U6IzE4MTgxODtzdHJva2Utd2lkdGg6MC41OyIgeDE9IjE4MzIiIHgyPSIyMDc2IiB5MT0iMTU5MS41IiB5Mj0iMTU5MS41Ii8+PHRleHQgZmlsbD0iIzAwMDAwMCIgZm9udC1mYW1pbHk9InNhbnMtc2VyaWYiIGZvbnQtc2l6ZT0iMTQiIGxlbmd0aEFkanVzdD0ic3BhY2luZyIgdGV4dExlbmd0aD0iMTQ3IiB4PSIxODM3IiB5PSIxNjA4LjczNDQiPi1MaXN0Jmx0O1N0cmluZyZndDsgY291cnNlczwvdGV4dD48bGluZSBzdHlsZT0ic3Ryb2tlOiMxODE4MTg7c3Ryb2tlLXdpZHRoOjAuNTsiIHgxPSIxODMyIiB4Mj0iMjA3NiIgeTE9IjE2MTQuNDg0NCIgeTI9IjE2MTQuNDg0NCIvPjx0ZXh0IGZpbGw9IiMwMDAwMDAiIGZvbnQtZmFtaWx5PSJzYW5zLXNlcmlmIiBmb250LXNpemU9IjE0IiBsZW5ndGhBZGp1c3Q9InNwYWNpbmciIHRleHRMZW5ndGg9IjIxMiIgeD0iMTgzNyIgeT0iMTYzMS43MTg4Ij4rdm9pZCBhZGRDb3Vyc2UoU3RyaW5nIGNvdXJzZSk8L3RleHQ+PHRleHQgZmlsbD0iIzAwMDAwMCIgZm9udC1mYW1pbHk9InNhbnMtc2VyaWYiIGZvbnQtc2l6ZT0iMTQiIGxlbmd0aEFkanVzdD0ic3BhY2luZyIgdGV4dExlbmd0aD0iMjM0IiB4PSIxODM3IiB5PSIxNjQ2LjcwMzEiPit2b2lkIHJlbW92ZUNvdXJzZShTdHJpbmcgY291cnNlKTwvdGV4dD48dGV4dCBmaWxsPSIjMDAwMDAwIiBmb250LWZhbWlseT0ic2Fucy1zZXJpZiIgZm9udC1zaXplPSIxNCIgbGVuZ3RoQWRqdXN0PSJzcGFjaW5nIiB0ZXh0TGVuZ3RoPSIxODQiIHg9IjE4MzciIHk9IjE2NjEuNjg3NSI+K0xpc3QmbHQ7U3RyaW5nJmd0OyBnZXRDb3Vyc2VzKCk8L3RleHQ+PC9nPjwhLS1jbGFzcyBFeHRlcm5hbExpbmtzLS0+PGcgaWQ9ImVsZW1fRXh0ZXJuYWxMaW5rcyI+PHJlY3QgY29kZUxpbmU9IjE2OCIgZmlsbD0iI0YxRjFGMSIgaGVpZ2h0PSIxMjIuOTIxOSIgaWQ9IkV4dGVybmFsTGlua3MiIHJ4PSIyLjUiIHJ5PSIyLjUiIHN0eWxlPSJzdHJva2U6IzE4MTgxODtzdHJva2Utd2lkdGg6MC41OyIgd2lkdGg9IjM1NyIgeD0iMjExMi41IiB5PSIxNTUyIi8+PGVsbGlwc2UgY3g9IjIyNDEuMjUiIGN5PSIxNTY4IiBmaWxsPSIjQzJDMkMyIiByeD0iMTEiIHJ5PSIxMSIgc3R5bGU9InN0cm9rZTojMTgxODE4O3N0cm9rZS13aWR0aDoxLjA7Ii8+PHBhdGggZD0iTTIyMzguODc1LDE1NzIuMjUgTDIyMzguODc1LDE1NzQgTDIyNDMuODEyNSwxNTc0IEwyMjQzLjgxMjUsMTU3Mi4yNSBMMjIzOC44NzUsMTU3Mi4yNSBaIE0yMjM5LjU2MjUsMTU3Mi45Mzc1IFEyMjM5LjU2MjUsMTU3Mi45Mzc1IDIyMzkuNTYyNSwxNTYzLjc1IEwyMjM3LjgxMjUsMTU2My43NSBRMjIzNy44MTI1LDE1NjMuNzUgMjIzNy44MTI1LDE1NzIuOTM3NSBMMjIzOS41NjI1LDE1NzIuOTM3NSBaIE0yMjQzLjEyNSwxNTcyLjkzNzUgTDIyNDQuODc1LDE1NzIuOTM3NSBRMjI0NC44NzUsMTU3Mi45Mzc1IDIyNDQuODc1LDE1NzAuMTI1IEwyMjQzLjEyNSwxNTcwLjEyNSBRMjI0My4xMjUsMTU3MC4xMjUgMjI0My4xMjUsMTU3Mi45Mzc1IFogTTIyNDMuMTI1LDE1NjMuNzUgUTIyNDMuMTI1LDE1NjMuNzUgMjI0My4xMjUsMTU2Ni41NjI1IEwyMjQ0Ljg3NSwxNTY2LjU2MjUgUTIyNDQuODc1LDE1NjYuNTYyNSAyMjQ0Ljg3NSwxNTYzLjc1IEwyMjQzLjEyNSwxNTYzLjc1IFogTTIyMzguODc1LDE1NjQuNDM3NSBMMjI0My44MTI1LDE1NjQuNDM3NSBMMjI0My44MTI1LDE1NjIuNjg3NSBMMjIzOC44NzUsMTU2Mi42ODc1IEwyMjM4Ljg3NSwxNTY0LjQzNzUgWiAiIGZpbGw9IiMwMDAwMDAiLz48dGV4dCBmaWxsPSIjMDAwMDAwIiBmb250LWZhbWlseT0ic2Fucy1zZXJpZiIgZm9udC1zaXplPSIxNCIgbGVuZ3RoQWRqdXN0PSJzcGFjaW5nIiB0ZXh0TGVuZ3RoPSI5MSIgeD0iMjI2MS43NSIgeT0iMTU3My43NDIyIj5FeHRlcm5hbExpbmtzPC90ZXh0PjxsaW5lIHN0eWxlPSJzdHJva2U6IzE4MTgxODtzdHJva2Utd2lkdGg6MC41OyIgeDE9IjIxMTMuNSIgeDI9IjI0NjguNSIgeTE9IjE1ODQiIHkyPSIxNTg0Ii8+PHRleHQgZmlsbD0iIzAwMDAwMCIgZm9udC1mYW1pbHk9InNhbnMtc2VyaWYiIGZvbnQtc2l6ZT0iMTQiIGxlbmd0aEFkanVzdD0ic3BhY2luZyIgdGV4dExlbmd0aD0iMTgyIiB4PSIyMTE4LjUiIHk9IjE2MDEuMjM0NCI+LU1hcCZsdDtTdHJpbmcsIFN0cmluZyZndDsgbGlua3M8L3RleHQ+PGxpbmUgc3R5bGU9InN0cm9rZTojMTgxODE4O3N0cm9rZS13aWR0aDowLjU7IiB4MT0iMjExMy41IiB4Mj0iMjQ2OC41IiB5MT0iMTYwNi45ODQ0IiB5Mj0iMTYwNi45ODQ0Ii8+PHRleHQgZmlsbD0iIzAwMDAwMCIgZm9udC1mYW1pbHk9InNhbnMtc2VyaWYiIGZvbnQtc2l6ZT0iMTQiIGxlbmd0aEFkanVzdD0ic3BhY2luZyIgdGV4dExlbmd0aD0iMjY5IiB4PSIyMTE4LjUiIHk9IjE2MjQuMjE4OCI+K3ZvaWQgYWRkTGluayhTdHJpbmcgbmFtZSwgU3RyaW5nIHVybCk8L3RleHQ+PHRleHQgZmlsbD0iIzAwMDAwMCIgZm9udC1mYW1pbHk9InNhbnMtc2VyaWYiIGZvbnQtc2l6ZT0iMTQiIGxlbmd0aEFkanVzdD0ic3BhY2luZyIgdGV4dExlbmd0aD0iMjA3IiB4PSIyMTE4LjUiIHk9IjE2MzkuMjAzMSI+K3ZvaWQgcmVtb3ZlTGluayhTdHJpbmcgbmFtZSk8L3RleHQ+PHRleHQgZmlsbD0iIzAwMDAwMCIgZm9udC1mYW1pbHk9InNhbnMtc2VyaWYiIGZvbnQtc2l6ZT0iMTQiIGxlbmd0aEFkanVzdD0ic3BhY2luZyIgdGV4dExlbmd0aD0iMjE5IiB4PSIyMTE4LjUiIHk9IjE2NTQuMTg3NSI+K01hcCZsdDtTdHJpbmcsIFN0cmluZyZndDsgZ2V0TGlua3MoKTwvdGV4dD48dGV4dCBmaWxsPSIjMDAwMDAwIiBmb250LWZhbWlseT0ic2Fucy1zZXJpZiIgZm9udC1zaXplPSIxNCIgbGVuZ3RoQWRqdXN0PSJzcGFjaW5nIiB0ZXh0TGVuZ3RoPSIzNDUiIHg9IjIxMTguNSIgeT0iMTY2OS4xNzE5Ij4rYm9vbGVhbiB2YWxpZGF0ZUxpbmtzKE1hcCZsdDtTdHJpbmcsIFN0cmluZyZndDsgbGlua3MpPC90ZXh0PjwvZz48IS0tY2xhc3MgQ2FyZWVyUHJlZGljdGlvbi0tPjxnIGlkPSJlbGVtX0NhcmVlclByZWRpY3Rpb24iPjxyZWN0IGNvZGVMaW5lPSIxNzciIGZpbGw9IiNGMUYxRjEiIGhlaWdodD0iMTczLjcwMzEiIGlkPSJDYXJlZXJQcmVkaWN0aW9uIiByeD0iMi41IiByeT0iMi41IiBzdHlsZT0ic3Ryb2tlOiMxODE4MTg7c3Ryb2tlLXdpZHRoOjAuNTsiIHdpZHRoPSIzNTAiIHg9IjExMzUiIHk9IjcxNSIvPjxlbGxpcHNlIGN4PSIxMjQ5Ljc1IiBjeT0iNzMzLjkxNDEiIGZpbGw9IiNDMkMyQzIiIHJ4PSIxMSIgcnk9IjExIiBzdHlsZT0ic3Ryb2tlOiMxODE4MTg7c3Ryb2tlLXdpZHRoOjEuMDsiLz48cGF0aCBkPSJNMTI0Ny4zNzUsNzM4LjE2NDEgTDEyNDcuMzc1LDczOS45MTQxIEwxMjUyLjMxMjUsNzM5LjkxNDEgTDEyNTIuMzEyNSw3MzguMTY0MSBMMTI0Ny4zNzUsNzM4LjE2NDEgWiBNMTI0OC4wNjI1LDczOC44NTE2IFExMjQ4LjA2MjUsNzM4Ljg1MTYgMTI0OC4wNjI1LDcyOS42NjQxIEwxMjQ2LjMxMjUsNzI5LjY2NDEgUTEyNDYuMzEyNSw3MjkuNjY0MSAxMjQ2LjMxMjUsNzM4Ljg1MTYgTDEyNDguMDYyNSw3MzguODUxNiBaIE0xMjUxLjYyNSw3MzguODUxNiBMMTI1My4zNzUsNzM4Ljg1MTYgUTEyNTMuMzc1LDczOC44NTE2IDEyNTMuMzc1LDczNi4wMzkxIEwxMjUxLjYyNSw3MzYuMDM5MSBRMTI1MS42MjUsNzM2LjAzOTEgMTI1MS42MjUsNzM4Ljg1MTYgWiBNMTI1MS42MjUsNzI5LjY2NDEgUTEyNTEuNjI1LDcyOS42NjQxIDEyNTEuNjI1LDczMi40NzY2IEwxMjUzLjM3NSw3MzIuNDc2NiBRMTI1My4zNzUsNzMyLjQ3NjYgMTI1My4zNzUsNzI5LjY2NDEgTDEyNTEuNjI1LDcyOS42NjQxIFogTTEyNDcuMzc1LDczMC4zNTE2IEwxMjUyLjMxMjUsNzMwLjM1MTYgTDEyNTIuMzEyNSw3MjguNjAxNiBMMTI0Ny4zNzUsNzI4LjYwMTYgTDEyNDcuMzc1LDczMC4zNTE2IFogIiBmaWxsPSIjMDAwMDAwIi8+PHRleHQgZmlsbD0iIzAwMDAwMCIgZm9udC1mYW1pbHk9InNhbnMtc2VyaWYiIGZvbnQtc2l6ZT0iMTIiIGZvbnQtc3R5bGU9Iml0YWxpYyIgbGVuZ3RoQWRqdXN0PSJzcGFjaW5nIiB0ZXh0TGVuZ3RoPSI4NSIgeD0iMTI4My43NSIgeT0iNzMxLjM0MzgiPiYjMTcxO1ZhbHVlT2JqZWN0JiMxODc7PC90ZXh0Pjx0ZXh0IGZpbGw9IiMwMDAwMDAiIGZvbnQtZmFtaWx5PSJzYW5zLXNlcmlmIiBmb250LXNpemU9IjE0IiBsZW5ndGhBZGp1c3Q9InNwYWNpbmciIHRleHRMZW5ndGg9IjExMiIgeD0iMTI3MC4yNSIgeT0iNzQ2LjA3ODEiPkNhcmVlclByZWRpY3Rpb248L3RleHQ+PGxpbmUgc3R5bGU9InN0cm9rZTojMTgxODE4O3N0cm9rZS13aWR0aDowLjU7IiB4MT0iMTEzNiIgeDI9IjE0ODQiIHkxPSI3NTIuODI4MSIgeTI9Ijc1Mi44MjgxIi8+PHRleHQgZmlsbD0iIzAwMDAwMCIgZm9udC1mYW1pbHk9InNhbnMtc2VyaWYiIGZvbnQtc2l6ZT0iMTQiIGxlbmd0aEFkanVzdD0ic3BhY2luZyIgdGV4dExlbmd0aD0iMTI2IiB4PSIxMTQxIiB5PSI3NzAuMDYyNSI+LVN0cmluZyBjYXJlZXJQYXRoPC90ZXh0Pjx0ZXh0IGZpbGw9IiMwMDAwMDAiIGZvbnQtZmFtaWx5PSJzYW5zLXNlcmlmIiBmb250LXNpemU9IjE0IiBsZW5ndGhBZGp1c3Q9InNwYWNpbmciIHRleHRMZW5ndGg9IjEzMyIgeD0iMTE0MSIgeT0iNzg1LjA0NjkiPi1Eb3VibGUgcHJvYmFiaWxpdHk8L3RleHQ+PHRleHQgZmlsbD0iIzAwMDAwMCIgZm9udC1mYW1pbHk9InNhbnMtc2VyaWYiIGZvbnQtc2l6ZT0iMTQiIGxlbmd0aEFkanVzdD0ic3BhY2luZyIgdGV4dExlbmd0aD0iMTgzIiB4PSIxMTQxIiB5PSI4MDAuMDMxMyI+LUxvY2FsRGF0ZVRpbWUgcHJlZGljdGVkQXQ8L3RleHQ+PGxpbmUgc3R5bGU9InN0cm9rZTojMTgxODE4O3N0cm9rZS13aWR0aDowLjU7IiB4MT0iMTEzNiIgeDI9IjE0ODQiIHkxPSI4MDUuNzgxMyIgeTI9IjgwNS43ODEzIi8+PHRleHQgZmlsbD0iIzAwMDAwMCIgZm9udC1mYW1pbHk9InNhbnMtc2VyaWYiIGZvbnQtc2l6ZT0iMTQiIGxlbmd0aEFkanVzdD0ic3BhY2luZyIgdGV4dExlbmd0aD0iMTcwIiB4PSIxMTQxIiB5PSI4MjMuMDE1NiI+K0RvdWJsZSBnZXRQcm9iYWJpbGl0eSgpPC90ZXh0Pjx0ZXh0IGZpbGw9IiMwMDAwMDAiIGZvbnQtZmFtaWx5PSJzYW5zLXNlcmlmIiBmb250LXNpemU9IjE0IiBsZW5ndGhBZGp1c3Q9InNwYWNpbmciIHRleHRMZW5ndGg9IjIyMCIgeD0iMTE0MSIgeT0iODM4Ij4rTG9jYWxEYXRlVGltZSBnZXRQcmVkaWN0ZWRBdCgpPC90ZXh0Pjx0ZXh0IGZpbGw9IiMwMDAwMDAiIGZvbnQtZmFtaWx5PSJzYW5zLXNlcmlmIiBmb250LXNpemU9IjE0IiBsZW5ndGhBZGp1c3Q9InNwYWNpbmciIHRleHRMZW5ndGg9IjI2OCIgeD0iMTE0MSIgeT0iODUyLjk4NDQiPit2b2lkIHNldENhcmVlclBhdGgoU3RyaW5nIGNhcmVlclBhdGgpPC90ZXh0Pjx0ZXh0IGZpbGw9IiMwMDAwMDAiIGZvbnQtZmFtaWx5PSJzYW5zLXNlcmlmIiBmb250LXNpemU9IjE0IiBsZW5ndGhBZGp1c3Q9InNwYWNpbmciIHRleHRMZW5ndGg9IjI4MiIgeD0iMTE0MSIgeT0iODY3Ljk2ODgiPit2b2lkIHNldFByb2JhYmlsaXR5KERvdWJsZSBwcm9iYWJpbGl0eSk8L3RleHQ+PHRleHQgZmlsbD0iIzAwMDAwMCIgZm9udC1mYW1pbHk9InNhbnMtc2VyaWYiIGZvbnQtc2l6ZT0iMTQiIGxlbmd0aEFkanVzdD0ic3BhY2luZyIgdGV4dExlbmd0aD0iMzM4IiB4PSIxMTQxIiB5PSI4ODIuOTUzMSI+K2Jvb2xlYW4gdmFsaWRhdGVQcm9iYWJpbGl0eShEb3VibGUgcHJvYmFiaWxpdHkpPC90ZXh0PjwvZz48ZyBpZD0iZWxlbV9HTU4zMiI+PHBhdGggZD0iTTE0ODEuNSwxMTcgTDE0ODEuNSwxMzIgTDE0NDYuODgsMTM2IEwxNDgxLjUsMTQwIEwxNDgxLjUsMTU0LjgyODEgQTAsMCAwIDAgMCAxNDgxLjUsMTU0LjgyODEgTDE3MDAuNSwxNTQuODI4MSBBMCwwIDAgMCAwIDE3MDAuNSwxNTQuODI4MSBMMTcwMC41LDEyNyBMMTY5MC41LDExNyBMMTQ4MS41LDExNyBBMCwwIDAgMCAwIDE0ODEuNSwxMTcgIiBmaWxsPSIjRkFGQUZBIiBzdHlsZT0ic3Ryb2tlOiMxODE4MTg7c3Ryb2tlLXdpZHRoOjAuNTsiLz48cGF0aCBkPSJNMTY5MC41LDExNyBMMTY5MC41LDEyNyBMMTcwMC41LDEyNyBMMTY5MC41LDExNyAiIGZpbGw9IiNGQUZBRkEiIHN0eWxlPSJzdHJva2U6IzE4MTgxODtzdHJva2Utd2lkdGg6MC41OyIvPjx0ZXh0IGZpbGw9IiMwMDAwMDAiIGZvbnQtZmFtaWx5PSJzYW5zLXNlcmlmIiBmb250LXNpemU9IjEzIiBsZW5ndGhBZGp1c3Q9InNwYWNpbmciIHRleHRMZW5ndGg9IjE5OCIgeD0iMTQ4Ny41IiB5PSIxMzQuMjg5MSI+QmFzZSBjbGFzcyBmb3IgYWxsIHVzZXIgdHlwZXM8L3RleHQ+PHRleHQgZmlsbD0iIzAwMDAwMCIgZm9udC1mYW1pbHk9InNhbnMtc2VyaWYiIGZvbnQtc2l6ZT0iMTMiIGxlbmd0aEFkanVzdD0ic3BhY2luZyIgdGV4dExlbmd0aD0iMTc4IiB4PSIxNDg3LjUiIHk9IjE0OC4yMDMxIj53aXRoIGF1dGhlbnRpY2F0aW9uIGRldGFpbHM8L3RleHQ+PC9nPjxnIGlkPSJlbGVtX0dNTjM1Ij48cGF0aCBkPSJNMTI1NC41LDQ2NSBMMTI1NC41LDQ4MCBMMTIxOS4yNyw0ODQgTDEyNTQuNSw0ODggTDEyNTQuNSw1MDIuODI4MSBBMCwwIDAgMCAwIDEyNTQuNSw1MDIuODI4MSBMMTQ1MS41LDUwMi44MjgxIEEwLDAgMCAwIDAgMTQ1MS41LDUwMi44MjgxIEwxNDUxLjUsNDc1IEwxNDQxLjUsNDY1IEwxMjU0LjUsNDY1IEEwLDAgMCAwIDAgMTI1NC41LDQ2NSAiIGZpbGw9IiNGQUZBRkEiIHN0eWxlPSJzdHJva2U6IzE4MTgxODtzdHJva2Utd2lkdGg6MC41OyIvPjxwYXRoIGQ9Ik0xNDQxLjUsNDY1IEwxNDQxLjUsNDc1IEwxNDUxLjUsNDc1IEwxNDQxLjUsNDY1ICIgZmlsbD0iI0ZBRkFGQSIgc3R5bGU9InN0cm9rZTojMTgxODE4O3N0cm9rZS13aWR0aDowLjU7Ii8+PHRleHQgZmlsbD0iIzAwMDAwMCIgZm9udC1mYW1pbHk9InNhbnMtc2VyaWYiIGZvbnQtc2l6ZT0iMTMiIGxlbmd0aEFkanVzdD0ic3BhY2luZyIgdGV4dExlbmd0aD0iMTc2IiB4PSIxMjYwLjUiIHk9IjQ4Mi4yODkxIj5FeHRlbmRzIFVzZXIgd2l0aCBhY2FkZW1pYzwvdGV4dD48dGV4dCBmaWxsPSIjMDAwMDAwIiBmb250LWZhbWlseT0ic2Fucy1zZXJpZiIgZm9udC1zaXplPSIxMyIgbGVuZ3RoQWRqdXN0PSJzcGFjaW5nIiB0ZXh0TGVuZ3RoPSIxNjIiIHg9IjEyNjAuNSIgeT0iNDk2LjIwMzEiPmFuZCBwZXJzb25hbCBpbmZvcm1hdGlvbjwvdGV4dD48L2c+PGcgaWQ9ImVsZW1fR01OMzgiPjxwYXRoIGQ9Ik0yNTA0LjUsMTU5NC41IEwyNTA0LjUsMTYzMi4zMjgxIEwyNzQ1LjUsMTYzMi4zMjgxIEwyNzQ1LjUsMTYwNC41IEwyNzM1LjUsMTU5NC41IEwyNTA0LjUsMTU5NC41ICIgZmlsbD0iI0ZBRkFGQSIgc3R5bGU9InN0cm9rZTojMTgxODE4O3N0cm9rZS13aWR0aDowLjU7Ii8+PHBhdGggZD0iTTI3MzUuNSwxNTk0LjUgTDI3MzUuNSwxNjA0LjUgTDI3NDUuNSwxNjA0LjUgTDI3MzUuNSwxNTk0LjUgIiBmaWxsPSIjRkFGQUZBIiBzdHlsZT0ic3Ryb2tlOiMxODE4MTg7c3Ryb2tlLXdpZHRoOjEuMDsiLz48dGV4dCBmaWxsPSIjMDAwMDAwIiBmb250LWZhbWlseT0ic2Fucy1zZXJpZiIgZm9udC1zaXplPSIxMyIgbGVuZ3RoQWRqdXN0PSJzcGFjaW5nIiB0ZXh0TGVuZ3RoPSIyMjAiIHg9IjI1MTAuNSIgeT0iMTYxMS43ODkxIj5SZXByZXNlbnRzIHBvc3NpYmxlIGNhcmVlciBwYXRoczwvdGV4dD48dGV4dCBmaWxsPSIjMDAwMDAwIiBmb250LWZhbWlseT0ic2Fucy1zZXJpZiIgZm9udC1zaXplPSIxMyIgbGVuZ3RoQWRqdXN0PSJzcGFjaW5nIiB0ZXh0TGVuZ3RoPSIyMTciIHg9IjI1MTAuNSIgeT0iMTYyNS43MDMxIj53aXRoIHJlcXVpcmVkIHNraWxscyBhbmQgY291cnNlczwvdGV4dD48L2c+PCEtLXJldmVyc2UgbGluayBVc2VyIHRvIFN0dWRlbnQtLT48ZyBpZD0ibGlua19Vc2VyX1N0dWRlbnQiPjxwYXRoIGNvZGVMaW5lPSIxODkiIGQ9Ik0xMTYwLjI1LDI4My4wOSBDMTE2MC4yNSwzMDIuNTMgMTE2MC4yNSwzMDQuNzcgMTE2MC4yNSwzMjQuNzUgIiBmaWxsPSJub25lIiBpZD0iVXNlci1iYWNrdG8tU3R1ZGVudCIgc3R5bGU9InN0cm9rZTojMTgxODE4O3N0cm9rZS13aWR0aDoxLjA7Ii8+PHBvbHlnb24gZmlsbD0ibm9uZSIgcG9pbnRzPSIxMTYwLjI1LDI2NS4wOSwxMTU0LjI1LDI4My4wOSwxMTY2LjI1LDI4My4wOSwxMTYwLjI1LDI2NS4wOSIgc3R5bGU9InN0cm9rZTojMTgxODE4O3N0cm9rZS13aWR0aDoxLjA7Ii8+PC9nPjwhLS1yZXZlcnNlIGxpbmsgVXNlciB0byBJbnN0aXR1dGlvbi0tPjxnIGlkPSJsaW5rX1VzZXJfSW5zdGl0dXRpb24iPjxwYXRoIGNvZGVMaW5lPSIxOTAiIGQ9Ik0xNDY0LjU2LDIxMCBDMTU0Ny4xMiwyMTAgMTYxMC4yNSwyMTAgMTYxMC4yNSwyMTAgQzE2MTAuMjUsMjEwIDE2MTAuMjUsNTM0LjM4IDE2MTAuMjUsNzAyLjkxICIgZmlsbD0ibm9uZSIgaWQ9IlVzZXItYmFja3RvLUluc3RpdHV0aW9uIiBzdHlsZT0ic3Ryb2tlOiMxODE4MTg7c3Ryb2tlLXdpZHRoOjEuMDsiLz48cG9seWdvbiBmaWxsPSJub25lIiBwb2ludHM9IjE0NDYuNTYsMjEwLDE0NjQuNTYsMjE2LDE0NjQuNTYsMjA0LDE0NDYuNTYsMjEwIiBzdHlsZT0ic3Ryb2tlOiMxODE4MTg7c3Ryb2tlLXdpZHRoOjEuMDsiLz48L2c+PCEtLXJldmVyc2UgbGluayBTdHVkZW50IHRvIENhcmVlclByZWRpY3Rpb24tLT48ZyBpZD0ibGlua19TdHVkZW50X0NhcmVlclByZWRpY3Rpb24iPjxwYXRoIGNvZGVMaW5lPSIxOTEiIGQ9Ik0xMTYzLDY1NSBDMTE2Myw2NzkuNjkgMTE2Myw2OTIuMzggMTE2Myw3MTQuNjggIiBmaWxsPSJub25lIiBpZD0iU3R1ZGVudC1iYWNrdG8tQ2FyZWVyUHJlZGljdGlvbiIgc3R5bGU9InN0cm9rZTojMTgxODE4O3N0cm9rZS13aWR0aDoxLjA7Ii8+PHBvbHlnb24gZmlsbD0iIzE4MTgxOCIgcG9pbnRzPSIxMTYzLDY0MywxMTU5LDY0OSwxMTYzLDY1NSwxMTY3LDY0OSwxMTYzLDY0MyIgc3R5bGU9InN0cm9rZTojMTgxODE4O3N0cm9rZS13aWR0aDoxLjA7Ii8+PHRleHQgZmlsbD0iIzAwMDAwMCIgZm9udC1mYW1pbHk9InNhbnMtc2VyaWYiIGZvbnQtc2l6ZT0iMTMiIGxlbmd0aEFkanVzdD0ic3BhY2luZyIgdGV4dExlbmd0aD0iNyIgeD0iMTE2MS4yMzM2IiB5PSI2NjIuODE1NCI+MTwvdGV4dD48dGV4dCBmaWxsPSIjMDAwMDAwIiBmb250LWZhbWlseT0ic2Fucy1zZXJpZiIgZm9udC1zaXplPSIxMyIgbGVuZ3RoQWRqdXN0PSJzcGFjaW5nIiB0ZXh0TGVuZ3RoPSIyNyIgeD0iMTEyMS4yMDM5IiB5PSI3MDUuMzc1OCI+bWFueTwvdGV4dD48L2c+PCEtLXJldmVyc2UgbGluayBTdHVkZW50IHRvIFN0dWRlbnRQcm9maWxlLS0+PGcgaWQ9ImxpbmtfU3R1ZGVudF9TdHVkZW50UHJvZmlsZSI+PHBhdGggY29kZUxpbmU9IjE5MiIgZD0iTTk0NS44Myw2NTUgQzk0NS44Myw3MDEuNDUgOTQ1LjgzLDcyOCA5NDUuODMsNzI4IEM5NDUuODMsNzI4IDQ4Ny40Miw3MjggMjU5LjExLDcyOCAiIGZpbGw9Im5vbmUiIGlkPSJTdHVkZW50LWJhY2t0by1TdHVkZW50UHJvZmlsZSIgc3R5bGU9InN0cm9rZTojMTgxODE4O3N0cm9rZS13aWR0aDoxLjA7Ii8+PHBvbHlnb24gZmlsbD0iIzE4MTgxOCIgcG9pbnRzPSI5NDUuODMsNjQzLDk0MS44Myw2NDksOTQ1LjgzLDY1NSw5NDkuODMsNjQ5LDk0NS44Myw2NDMiIHN0eWxlPSJzdHJva2U6IzE4MTgxODtzdHJva2Utd2lkdGg6MS4wOyIvPjx0ZXh0IGZpbGw9IiMwMDAwMDAiIGZvbnQtZmFtaWx5PSJzYW5zLXNlcmlmIiBmb250LXNpemU9IjEzIiBsZW5ndGhBZGp1c3Q9InNwYWNpbmciIHRleHRMZW5ndGg9IjciIHg9IjkzNC4yMjMxIiB5PSI2NjIuODE1NCI+MTwvdGV4dD48dGV4dCBmaWxsPSIjMDAwMDAwIiBmb250LWZhbWlseT0ic2Fucy1zZXJpZiIgZm9udC1zaXplPSIxMyIgbGVuZ3RoQWRqdXN0PSJzcGFjaW5nIiB0ZXh0TGVuZ3RoPSI3IiB4PSIyNjcuMDA4MSIgeT0iNzIyLjQxNTciPjE8L3RleHQ+PC9nPjwhLS1yZXZlcnNlIGxpbmsgU3R1ZGVudCB0byBPTFJlc3VsdHMtLT48ZyBpZD0ibGlua19TdHVkZW50X09MUmVzdWx0cyI+PHBhdGggY29kZUxpbmU9IjE5MyIgZD0iTTg1Ni45MSw0ODQgQzY5My42LDQ4NCA0ODcsNDg0IDQ4Nyw0ODQgQzQ4Nyw0ODQgNDg3LDY0Ny44MyA0ODcsNzQwLjMxICIgZmlsbD0ibm9uZSIgaWQ9IlN0dWRlbnQtYmFja3RvLU9MUmVzdWx0cyIgc3R5bGU9InN0cm9rZTojMTgxODE4O3N0cm9rZS13aWR0aDoxLjA7Ii8+PHBvbHlnb24gZmlsbD0iIzE4MTgxOCIgcG9pbnRzPSI4NjguOTEsNDg0LDg2Mi45MSw0ODAsODU2LjkxLDQ4NCw4NjIuOTEsNDg4LDg2OC45MSw0ODQiIHN0eWxlPSJzdHJva2U6IzE4MTgxODtzdHJva2Utd2lkdGg6MS4wOyIvPjx0ZXh0IGZpbGw9IiMwMDAwMDAiIGZvbnQtZmFtaWx5PSJzYW5zLXNlcmlmIiBmb250LXNpemU9IjEzIiBsZW5ndGhBZGp1c3Q9InNwYWNpbmciIHRleHRMZW5ndGg9IjciIHg9Ijg1My44MTc2IiB5PSI0ODMuMDIxNiI+MTwvdGV4dD48dGV4dCBmaWxsPSIjMDAwMDAwIiBmb250LWZhbWlseT0ic2Fucy1zZXJpZiIgZm9udC1zaXplPSIxMyIgbGVuZ3RoQWRqdXN0PSJzcGFjaW5nIiB0ZXh0TGVuZ3RoPSI3IiB4PSI0NzkuNTUxNiIgeT0iNzMwLjkyNTgiPjE8L3RleHQ+PC9nPjwhLS1yZXZlcnNlIGxpbmsgU3R1ZGVudCB0byBBTFJlc3VsdHMtLT48ZyBpZD0ibGlua19TdHVkZW50X0FMUmVzdWx0cyI+PHBhdGggY29kZUxpbmU9IjE5NCIgZD0iTTEwMjIuNjcsNjU1IEMxMDIyLjY3LDY4OS42MyAxMDIyLjY3LDcxMi4yNSAxMDIyLjY3LDc0MC4zMSAiIGZpbGw9Im5vbmUiIGlkPSJTdHVkZW50LWJhY2t0by1BTFJlc3VsdHMiIHN0eWxlPSJzdHJva2U6IzE4MTgxODtzdHJva2Utd2lkdGg6MS4wOyIvPjxwb2x5Z29uIGZpbGw9IiMxODE4MTgiIHBvaW50cz0iMTAyMi42Nyw2NDMsMTAxOC42Nyw2NDksMTAyMi42Nyw2NTUsMTAyNi42Nyw2NDksMTAyMi42Nyw2NDMiIHN0eWxlPSJzdHJva2U6IzE4MTgxODtzdHJva2Utd2lkdGg6MS4wOyIvPjx0ZXh0IGZpbGw9IiMwMDAwMDAiIGZvbnQtZmFtaWx5PSJzYW5zLXNlcmlmIiBmb250LXNpemU9IjEzIiBsZW5ndGhBZGp1c3Q9InNwYWNpbmciIHRleHRMZW5ndGg9IjciIHg9IjEwMTQuNTQ0OSIgeT0iNjYyLjgxNTQiPjE8L3RleHQ+PHRleHQgZmlsbD0iIzAwMDAwMCIgZm9udC1mYW1pbHk9InNhbnMtc2VyaWYiIGZvbnQtc2l6ZT0iMTMiIGxlbmd0aEFkanVzdD0ic3BhY2luZyIgdGV4dExlbmd0aD0iNyIgeD0iMTAzMC4wNDE4IiB5PSI3MzAuOTI1OCI+MTwvdGV4dD48L2c+PCEtLWxpbmsgU3R1ZGVudCB0byBJbnN0aXR1dGlvbi0tPjxnIGlkPSJsaW5rX1N0dWRlbnRfSW5zdGl0dXRpb24iPjxwYXRoIGNvZGVMaW5lPSIxOTUiIGQ9Ik0xMTkxLDY0My4xIEMxMTkxLDY3OS4xMyAxMTkxLDcwNyAxMTkxLDcwNyBDMTE5MSw3MDcgMTM4NS45NSw3MDcgMTUxOS43OSw3MDcgIiBmaWxsPSJub25lIiBpZD0iU3R1ZGVudC1JbnN0aXR1dGlvbiIgc3R5bGU9InN0cm9rZTojMTgxODE4O3N0cm9rZS13aWR0aDoxLjA7Ii8+PHBvbHlnb24gZmlsbD0iIzAwMDAwMCIgcG9pbnRzPSIxMjUxLjM0ODIsNzAwLjkxMDksMTI0My4wMjk5LDY5Ni4zMDA0LDEyNDEuOTA4NSw3MDIuMDcwMywxMjUxLjM0ODIsNzAwLjkxMDkiIHN0eWxlPSJzdHJva2U6IzAwMDAwMDtzdHJva2Utd2lkdGg6MS4wOyIvPjx0ZXh0IGZpbGw9IiMwMDAwMDAiIGZvbnQtZmFtaWx5PSJzYW5zLXNlcmlmIiBmb250LXNpemU9IjEzIiBsZW5ndGhBZGp1c3Q9InNwYWNpbmciIHRleHRMZW5ndGg9IjY3IiB4PSIxMjU1LjQ0IiB5PSI3MDUuMjg5MSI+c3R1ZGllcyBhdDwvdGV4dD48dGV4dCBmaWxsPSIjMDAwMDAwIiBmb250LWZhbWlseT0ic2Fucy1zZXJpZiIgZm9udC1zaXplPSIxMyIgbGVuZ3RoQWRqdXN0PSJzcGFjaW5nIiB0ZXh0TGVuZ3RoPSIyNyIgeD0iMTE3MC4wNDkyIiB5PSI2NjIuOTE5OSI+bWFueTwvdGV4dD48dGV4dCBmaWxsPSIjMDAwMDAwIiBmb250LWZhbWlseT0ic2Fucy1zZXJpZiIgZm9udC1zaXplPSIxMyIgbGVuZ3RoQWRqdXN0PSJzcGFjaW5nIiB0ZXh0TGVuZ3RoPSI3IiB4PSIxNTA1LjA2ODYiIHk9IjcwMC4xMzY1Ij4xPC90ZXh0PjwvZz48IS0tbGluayBJbnN0aXR1dGlvbiB0byBDb3Vyc2UtLT48ZyBpZD0ibGlua19JbnN0aXR1dGlvbl9Db3Vyc2UiPjxwYXRoIGNvZGVMaW5lPSIxOTYiIGQ9Ik0xNzEyLjI1LDkwMS4xMSBDMTcxMi4yNSw5MjAuMzkgMTcxMi4yNSw5NDAuODcgMTcxMi4yNSw5NjAuOTUgIiBmaWxsPSJub25lIiBpZD0iSW5zdGl0dXRpb24tQ291cnNlIiBzdHlsZT0ic3Ryb2tlOiMxODE4MTg7c3Ryb2tlLXdpZHRoOjEuMDsiLz48cG9seWdvbiBmaWxsPSIjMDAwMDAwIiBwb2ludHM9IjE2NjIuMjUsOTI4Ljk4NywxNjY1LjE4ODksOTE5Ljk0MTksMTY1OS4zMTExLDkxOS45NDE5LDE2NjIuMjUsOTI4Ljk4NyIgc3R5bGU9InN0cm9rZTojMDAwMDAwO3N0cm9rZS13aWR0aDoxLjA7Ii8+PHRleHQgZmlsbD0iIzAwMDAwMCIgZm9udC1mYW1pbHk9InNhbnMtc2VyaWYiIGZvbnQtc2l6ZT0iMTMiIGxlbmd0aEFkanVzdD0ic3BhY2luZyIgdGV4dExlbmd0aD0iNDAiIHg9IjE2NzEuMjUiIHk9IjkyOS4zMTkxIj5vZmZlcnM8L3RleHQ+PHRleHQgZmlsbD0iIzAwMDAwMCIgZm9udC1mYW1pbHk9InNhbnMtc2VyaWYiIGZvbnQtc2l6ZT0iMTMiIGxlbmd0aEFkanVzdD0ic3BhY2luZyIgdGV4dExlbmd0aD0iMjciIHg9IjE2ODkuMzQ0MSIgeT0iOTIxLjE5NDEiPm1hbnk8L3RleHQ+PHRleHQgZmlsbD0iIzAwMDAwMCIgZm9udC1mYW1pbHk9InNhbnMtc2VyaWYiIGZvbnQtc2l6ZT0iMTMiIGxlbmd0aEFkanVzdD0ic3BhY2luZyIgdGV4dExlbmd0aD0iMjciIHg9IjE2NzYuMTYyOSIgeT0iOTUxLjE2OTkiPm1hbnk8L3RleHQ+PC9nPjwhLS1yZXZlcnNlIGxpbmsgSW5zdGl0dXRpb24gdG8gQ29udGFjdEluZm8tLT48ZyBpZD0ibGlua19JbnN0aXR1dGlvbl9Db250YWN0SW5mbyI+PHBhdGggY29kZUxpbmU9IjE5NyIgZD0iTTE1NzEuNzUsOTEzLjExIEMxNTcxLjc1LDk1NS4yNiAxNTcxLjc1LDk5MS4xIDE1NzEuNzUsMTAyOC4wOSAiIGZpbGw9Im5vbmUiIGlkPSJJbnN0aXR1dGlvbi1iYWNrdG8tQ29udGFjdEluZm8iIHN0eWxlPSJzdHJva2U6IzE4MTgxODtzdHJva2Utd2lkdGg6MS4wOyIvPjxwb2x5Z29uIGZpbGw9IiMxODE4MTgiIHBvaW50cz0iMTU3MS43NSw5MDEuMTEsMTU2Ny43NSw5MDcuMTEsMTU3MS43NSw5MTMuMTEsMTU3NS43NSw5MDcuMTEsMTU3MS43NSw5MDEuMTEiIHN0eWxlPSJzdHJva2U6IzE4MTgxODtzdHJva2Utd2lkdGg6MS4wOyIvPjx0ZXh0IGZpbGw9IiMwMDAwMDAiIGZvbnQtZmFtaWx5PSJzYW5zLXNlcmlmIiBmb250LXNpemU9IjEzIiBsZW5ndGhBZGp1c3Q9InNwYWNpbmciIHRleHRMZW5ndGg9IjciIHg9IjE1NTkuMjYwNSIgeT0iOTIxLjE5NDEiPjE8L3RleHQ+PHRleHQgZmlsbD0iIzAwMDAwMCIgZm9udC1mYW1pbHk9InNhbnMtc2VyaWYiIGZvbnQtc2l6ZT0iMTMiIGxlbmd0aEFkanVzdD0ic3BhY2luZyIgdGV4dExlbmd0aD0iNyIgeD0iMTU3OS42NDQ1IiB5PSIxMDE4LjY3NzYiPjE8L3RleHQ+PC9nPjwhLS1saW5rIENvdXJzZSB0byBDYXJlZXItLT48ZyBpZD0ibGlua19Db3Vyc2VfQ2FyZWVyIj48cGF0aCBjb2RlTGluZT0iMTk4IiBkPSJNMjAwMSwxMjE5LjE4IEMyMDAxLDEyMzkuMDYgMjAwMSwxMjU5LjM5IDIwMDEsMTI3OC43MSAiIGZpbGw9Im5vbmUiIGlkPSJDb3Vyc2UtQ2FyZWVyIiBzdHlsZT0ic3Ryb2tlOiMxODE4MTg7c3Ryb2tlLXdpZHRoOjEuMDsiLz48cG9seWdvbiBmaWxsPSIjMDAwMDAwIiBwb2ludHM9IjE5MzcsMTI0Ni45MDcsMTkzOS45Mzg5LDEyMzcuODYxOSwxOTM0LjA2MTEsMTIzNy44NjE5LDE5MzcsMTI0Ni45MDciIHN0eWxlPSJzdHJva2U6IzAwMDAwMDtzdHJva2Utd2lkdGg6MS4wOyIvPjx0ZXh0IGZpbGw9IiMwMDAwMDAiIGZvbnQtZmFtaWx5PSJzYW5zLXNlcmlmIiBmb250LXNpemU9IjEzIiBsZW5ndGhBZGp1c3Q9InNwYWNpbmciIHRleHRMZW5ndGg9IjU0IiB4PSIxOTQ2IiB5PSIxMjQ3LjIzOTEiPmxlYWRzIHRvPC90ZXh0Pjx0ZXh0IGZpbGw9IiMwMDAwMDAiIGZvbnQtZmFtaWx5PSJzYW5zLXNlcmlmIiBmb250LXNpemU9IjEzIiBsZW5ndGhBZGp1c3Q9InNwYWNpbmciIHRleHRMZW5ndGg9IjI3IiB4PSIxOTgyLjM5NDUiIHk9IjEyMzguOTIiPm1hbnk8L3RleHQ+PHRleHQgZmlsbD0iIzAwMDAwMCIgZm9udC1mYW1pbHk9InNhbnMtc2VyaWYiIGZvbnQtc2l6ZT0iMTMiIGxlbmd0aEFkanVzdD0ic3BhY2luZyIgdGV4dExlbmd0aD0iMjciIHg9IjE5NjMuNzAyMyIgeT0iMTI2OS4zNjY5Ij5tYW55PC90ZXh0PjwvZz48IS0tcmV2ZXJzZSBsaW5rIENvdXJzZSB0byBNaW5pbXVtR3JhZGVzLS0+PGcgaWQ9ImxpbmtfQ291cnNlX01pbmltdW1HcmFkZXMiPjxwYXRoIGNvZGVMaW5lPSIxOTkiIGQ9Ik0xNjY3LDEyMzEuMTggQzE2NjcsMTI2Ny41MiAxNjY3LDEyOTMuMzggMTY2NywxMzIzLjc5ICIgZmlsbD0ibm9uZSIgaWQ9IkNvdXJzZS1iYWNrdG8tTWluaW11bUdyYWRlcyIgc3R5bGU9InN0cm9rZTojMTgxODE4O3N0cm9rZS13aWR0aDoxLjA7Ii8+PHBvbHlnb24gZmlsbD0iIzE4MTgxOCIgcG9pbnRzPSIxNjY3LDEyMTkuMTgsMTY2MywxMjI1LjE4LDE2NjcsMTIzMS4xOCwxNjcxLDEyMjUuMTgsMTY2NywxMjE5LjE4IiBzdHlsZT0ic3Ryb2tlOiMxODE4MTg7c3Ryb2tlLXdpZHRoOjEuMDsiLz48dGV4dCBmaWxsPSIjMDAwMDAwIiBmb250LWZhbWlseT0ic2Fucy1zZXJpZiIgZm9udC1zaXplPSIxMyIgbGVuZ3RoQWRqdXN0PSJzcGFjaW5nIiB0ZXh0TGVuZ3RoPSI3IiB4PSIxNjUwLjY3NTgiIHk9IjEyMzguOTIiPjE8L3RleHQ+PHRleHQgZmlsbD0iIzAwMDAwMCIgZm9udC1mYW1pbHk9InNhbnMtc2VyaWYiIGZvbnQtc2l6ZT0iMTMiIGxlbmd0aEFkanVzdD0ic3BhY2luZyIgdGV4dExlbmd0aD0iNyIgeD0iMTY4Mi4yMjk3IiB5PSIxMzE0LjQwMzIiPjE8L3RleHQ+PC9nPjwhLS1yZXZlcnNlIGxpbmsgQ291cnNlIHRvIFJlbGF0ZWRDYXJlZXJzLS0+PGcgaWQ9ImxpbmtfQ291cnNlX1JlbGF0ZWRDYXJlZXJzIj48cGF0aCBjb2RlTGluZT0iMjAwIiBkPSJNMTgzNCwxMjMxLjE4IEMxODM0LDEyNzAuNjMgMTgzNCwxMjk5Ljg3IDE4MzQsMTMzMS40MSAiIGZpbGw9Im5vbmUiIGlkPSJDb3Vyc2UtYmFja3RvLVJlbGF0ZWRDYXJlZXJzIiBzdHlsZT0ic3Ryb2tlOiMxODE4MTg7c3Ryb2tlLXdpZHRoOjEuMDsiLz48cG9seWdvbiBmaWxsPSIjMTgxODE4IiBwb2ludHM9IjE4MzQsMTIxOS4xOCwxODMwLDEyMjUuMTgsMTgzNCwxMjMxLjE4LDE4MzgsMTIyNS4xOCwxODM0LDEyMTkuMTgiIHN0eWxlPSJzdHJva2U6IzE4MTgxODtzdHJva2Utd2lkdGg6MS4wOyIvPjx0ZXh0IGZpbGw9IiMwMDAwMDAiIGZvbnQtZmFtaWx5PSJzYW5zLXNlcmlmIiBmb250LXNpemU9IjEzIiBsZW5ndGhBZGp1c3Q9InNwYWNpbmciIHRleHRMZW5ndGg9IjciIHg9IjE4MjYuODA4NiIgeT0iMTIzOC45MiI+MTwvdGV4dD48dGV4dCBmaWxsPSIjMDAwMDAwIiBmb250LWZhbWlseT0ic2Fucy1zZXJpZiIgZm9udC1zaXplPSIxMyIgbGVuZ3RoQWRqdXN0PSJzcGFjaW5nIiB0ZXh0TGVuZ3RoPSI3IiB4PSIxODI2LjQ4NTkiIHk9IjEzMjEuODcxNiI+MTwvdGV4dD48L2c+PCEtLXJldmVyc2UgbGluayBDYXJlZXIgdG8gUmVxdWlyZWRTa2lsbHMtLT48ZyBpZD0ibGlua19DYXJlZXJfUmVxdWlyZWRTa2lsbHMiPjxwYXRoIGNvZGVMaW5lPSIyMDEiIGQ9Ik0xOTgwLjM0LDE0NzAgQzE4NzQuMiwxNDcwIDE3NTMuNSwxNDcwIDE3NTMuNSwxNDcwIEMxNzUzLjUsMTQ3MCAxNzUzLjUsMTUxOC42MSAxNzUzLjUsMTU1OS4yNSAiIGZpbGw9Im5vbmUiIGlkPSJDYXJlZXItYmFja3RvLVJlcXVpcmVkU2tpbGxzIiBzdHlsZT0ic3Ryb2tlOiMxODE4MTg7c3Ryb2tlLXdpZHRoOjEuMDsiLz48cG9seWdvbiBmaWxsPSIjMTgxODE4IiBwb2ludHM9IjE5OTIuMzQsMTQ3MCwxOTg2LjM0LDE0NjYsMTk4MC4zNCwxNDcwLDE5ODYuMzQsMTQ3NCwxOTkyLjM0LDE0NzAiIHN0eWxlPSJzdHJva2U6IzE4MTgxODtzdHJva2Utd2lkdGg6MS4wOyIvPjx0ZXh0IGZpbGw9IiMwMDAwMDAiIGZvbnQtZmFtaWx5PSJzYW5zLXNlcmlmIiBmb250LXNpemU9IjEzIiBsZW5ndGhBZGp1c3Q9InNwYWNpbmciIHRleHRMZW5ndGg9IjciIHg9IjE5NzcuNjQxNyIgeT0iMTQ3My44Mjk4Ij4xPC90ZXh0Pjx0ZXh0IGZpbGw9IiMwMDAwMDAiIGZvbnQtZmFtaWx5PSJzYW5zLXNlcmlmIiBmb250LXNpemU9IjEzIiBsZW5ndGhBZGp1c3Q9InNwYWNpbmciIHRleHRMZW5ndGg9IjciIHg9IjE3NTYuNzgxMyIgeT0iMTU0OS42ODgxIj4xPC90ZXh0PjwvZz48IS0tcmV2ZXJzZSBsaW5rIENhcmVlciB0byBSZWxhdGVkQ291cnNlcy0tPjxnIGlkPSJsaW5rX0NhcmVlcl9SZWxhdGVkQ291cnNlcyI+PHBhdGggY29kZUxpbmU9IjIwMiIgZD0iTTIwMzQuNzUsMTUwNC4xNiBDMjAzNC43NSwxNTI3LjQ1IDIwMzQuNzUsMTUzOS4xNiAyMDM0Ljc1LDE1NTkuMzYgIiBmaWxsPSJub25lIiBpZD0iQ2FyZWVyLWJhY2t0by1SZWxhdGVkQ291cnNlcyIgc3R5bGU9InN0cm9rZTojMTgxODE4O3N0cm9rZS13aWR0aDoxLjA7Ii8+PHBvbHlnb24gZmlsbD0iIzE4MTgxOCIgcG9pbnRzPSIyMDM0Ljc1LDE0OTIuMTYsMjAzMC43NSwxNDk4LjE2LDIwMzQuNzUsMTUwNC4xNiwyMDM4Ljc1LDE0OTguMTYsMjAzNC43NSwxNDkyLjE2IiBzdHlsZT0ic3Ryb2tlOiMxODE4MTg7c3Ryb2tlLXdpZHRoOjEuMDsiLz48dGV4dCBmaWxsPSIjMDAwMDAwIiBmb250LWZhbWlseT0ic2Fucy1zZXJpZiIgZm9udC1zaXplPSIxMyIgbGVuZ3RoQWRqdXN0PSJzcGFjaW5nIiB0ZXh0TGVuZ3RoPSI3IiB4PSIyMDIxLjY1MjciIHk9IjE1MTIuMDg4NSI+MTwvdGV4dD48dGV4dCBmaWxsPSIjMDAwMDAwIiBmb250LWZhbWlseT0ic2Fucy1zZXJpZiIgZm9udC1zaXplPSIxMyIgbGVuZ3RoQWRqdXN0PSJzcGFjaW5nIiB0ZXh0TGVuZ3RoPSI3IiB4PSIyMDM5LjA5NjEiIHk9IjE1NDkuODE0MyI+MTwvdGV4dD48L2c+PCEtLXJldmVyc2UgbGluayBDYXJlZXIgdG8gRXh0ZXJuYWxMaW5rcy0tPjxnIGlkPSJsaW5rX0NhcmVlcl9FeHRlcm5hbExpbmtzIj48cGF0aCBjb2RlTGluZT0iMjAzIiBkPSJNMjE4MiwxNTA0LjE2IEMyMTgyLDE1MjQuNjcgMjE4MiwxNTMzLjUgMjE4MiwxNTUxLjk4ICIgZmlsbD0ibm9uZSIgaWQ9IkNhcmVlci1iYWNrdG8tRXh0ZXJuYWxMaW5rcyIgc3R5bGU9InN0cm9rZTojMTgxODE4O3N0cm9rZS13aWR0aDoxLjA7Ii8+PHBvbHlnb24gZmlsbD0iIzE4MTgxOCIgcG9pbnRzPSIyMTgyLDE0OTIuMTYsMjE3OCwxNDk4LjE2LDIxODIsMTUwNC4xNiwyMTg2LDE0OTguMTYsMjE4MiwxNDkyLjE2IiBzdHlsZT0ic3Ryb2tlOiMxODE4MTg7c3Ryb2tlLXdpZHRoOjEuMDsiLz48dGV4dCBmaWxsPSIjMDAwMDAwIiBmb250LWZhbWlseT0ic2Fucy1zZXJpZiIgZm9udC1zaXplPSIxMyIgbGVuZ3RoQWRqdXN0PSJzcGFjaW5nIiB0ZXh0TGVuZ3RoPSI3IiB4PSIyMTc4Ljc5NjEiIHk9IjE1MTIuMDg4NSI+MTwvdGV4dD48dGV4dCBmaWxsPSIjMDAwMDAwIiBmb250LWZhbWlseT0ic2Fucy1zZXJpZiIgZm9udC1zaXplPSIxMyIgbGVuZ3RoQWRqdXN0PSJzcGFjaW5nIiB0ZXh0TGVuZ3RoPSI3IiB4PSIyMTU5Ljg4MjgiIHk9IjE1NDIuMTk1NSI+MTwvdGV4dD48L2c+PCEtLWxpbmsgQ2FyZWVyIHRvIEdNTjM4LS0+PGcgaWQ9ImxpbmtfQ2FyZWVyX0dNTjM4Ij48cGF0aCBkPSJNMjI1MS41MywxMzg2IEMyNDAwLjU3LDEzODYgMjYyNSwxMzg2IDI2MjUsMTM4NiBDMjYyNSwxMzg2IDI2MjUsMTUzOS44MiAyNjI1LDE1OTQuNDkgIiBmaWxsPSJub25lIiBpZD0iQ2FyZWVyLUdNTjM4IiBzdHlsZT0ic3Ryb2tlOiMxODE4MTg7c3Ryb2tlLXdpZHRoOjEuMDtzdHJva2UtZGFzaGFycmF5OjcuMCw3LjA7Ii8+PC9nPjwhLS1TUkM9W3ZMWlRSemlzNDdfTk5xNWEzdE5ONlRYVVd5MjBjbkkzV1JHRHVjT0ZWUUNic2tPZ1lIdjk5S2twX1V5eFZhYnRiRUhicG9rR01oZmw3ZHp0SC1lRHN6aGRNaDFJak5qdnczSXRLaE1jQ0R6YVUtQVFEd29pa0o1aFF4TlNUTFBpRzZ1aGxtbHNDbjlmTEFsQWVyUURPNVB0MGQ3Q2FMVmdJUk83amtVcm1QblFqaTgtZG1ISnNYdkxLUm5YeHhhSHhDNDg3TG1NVjZVaXZnS0RodTdwS1ozdXp5RjNtLVE2b0lneVIyNHFTRDNvSFgyMlFCWWkyVUs0VGZ3S2ZkZlFySzdsZFJUdzQ3UEpCVHU2SVhHMXNZVW1GZ1AtUzJ4NnY3aW1jUVlGSWJSQ0gwQ2VyOG1UQkU3OEN1Nng2RmlZTXFpY3Zic1piS05zSmk0cFJ6YVpoc041aFNZam1RdnFsT2t0blR6a0Z4UXNncUhoNlZuOS1ybzROS1o0aTE3Qmcwd1dpQjFKWDZSQThwV2JmNGgyWmlmU3BjaDFjcTJ3S1RxRWlGWHpNb2VURGNOdi1WUFVjQXdzWGdhd0ZXTjZrY1Rtb2VYc2tyTy0yY3JTdzNKS0pYajF0MXJFRjhkdW5UcmZqUFQwRnVOVm1CazVzQS1ra0hQMnRzYkhtSWdXSmJPV2F2dzN6dFQzbDAyNF9ZTVhPT3N2d3ZvUnVYN3NneV8wVzJtSTVfM1pPbkFPMlN1QnpsNEhIRkFnNmJZQk4xS2pZdThYWFMwRjFvcUVsYlRHTzJJMTV2SXJhRmFMV0NtQUJLcFE5eUEzbmIzTmFtbzBIdGttSHFFM3RxSFIwdTMzVXhSNmhKRVJQQm9GTjIyUU5vMHFrZFVTczFJQVFtcmYyT2lQMFV6bWRmaU1pdVhmN1Qwb3BrWjBZeWR5bzRfSHM0eWk2VEs4LVZzWVdid19mNnh0a29YanFjNDdwSWxJVmhIZXJBRU9MOGZZS3Z2VGR3Rm1wUGpDT2YtOUV3UFhWSU9Ed196RjZaUWpXTFJSLUdlYU5IU3BRRVRyOHZHR2RpR0VVWHdiclFlQzZWTjR3ejJpRC1yVWZTUmpkZDZSeXBybzVOa2JtSnFjU2MzTHVUNkNmenlOMjJiSGlJLWxxeF9jdElZT011SVZ3N2N5RXpESUZkZE9ySFg1YzdpNkhwOGIwaU5iNUhTZXRwczRPOFV4b0kxN0FrUzFYRkVIZXlWcHZhQmpiLXhKR0kwSlFONmotQzJxcDB6Q19OV01makpvRDIwYnFVRWZDQVBEamhCZmNielQtSFpNdTNTb0xJRmRBdmhiN2E4OG9va2N6ZGxlZnpOeEVBRmxIR3JCaGk4dUNmMUVfOWhGbzhfTzBVY3VuOEtSbXliQmFnOWg2Nm01R2ZCQWVsNkxaWWF2WDk3UjFRdk9FSm9GbVY4ZzlSX0JERVdubjJkXzNDV0Ztc1JyaU5ral96V2dmdEpFMHZ0Y0R1VHd2Q3c3NzFFSHhTaXU0dmQwcjVjYW45WmdRenFKcXVnMm80SHZwcWxieXR1MElnWEpfdmhMUVEzYnYtY0FiWU9lckF5aExrWnF1ZzFxTnIxX1QxQVc3dXViaTAzeUljaWtqRkUtdmIzaE50eHU0cXV6QlF6bFBWbERDODdWeWtQXzNQNEZ6S0VTLV9oMWJCcEVPV0llcGtZOGVNNnV3blNjQjdmcTRBekp3MjAyQi1URmV3eXlJV1BlcENoQzdYQzllNkMydlc0VDFJTzFaTVRyRGJKOXJNVHNnNHY5WkczVHh1V0ZkRXg4RTZ4QUZ6RUl3VzVCQU5RZFdvX0NWSlZnejRKY1MtZHBWSVcxUGg4RDFVUGliQUlNcVBOOTdtUU95YnNHcjNRSWtSaHdwS2J6emFBaExMeHJHUHBSOG5jYVMwdFR5UHNpLXZsaUJIcGR3WGs4ejhqaUhCZ2dZTWZqeW1idkRzWnN5djdlM1hUNGZ2dl9paFprdXJjQzhpb19KWTFGdXgzZEZhQnlZejlHNi14d1VmR2RLX1lGRzVUX0JQVmZsZWFlUTdlTXdKRjVuSXlOeDRWV05KSXlWUnVPUlNYTzNkeGZKTlBJZkItUUpOQk5Pc3ZtN19idXA1XzJaUkVoZkFqd29yTzVQWTZiNjdxdXFiczZLdkY5bkw0NHdCSFJIQXNuakoxdUJYZGlJTU1PTE0wbG9JOUp2NUduOUsyN1JIN0RLV2FvVElPYm9EMlBhMjJUbkU3WWF4OFdzU0JfSkNsM3FLOUlfMlQyVzloX2ExV2dTQXlxdXROREVlU0lUbjF0SlVQOXNZRlpkSnN3R0hua0haMUVCUFNHZDZXaHZlbU1jVWE0RC1PWlFRbHVGSkFPQVk0dFpJbzFvSzd6MTZiRzRBZV9lVWljekNGQ3hhdlBnbmZkRUFtTExFeTVMQjgxN3VRVGIzN0liS0VlRHRSWXVWazd6dlBjVTFuSXRjTGdfaWRCRm0wMF0tLT48L2c+PC9zdmc+;" vertex="1" parent="1">
            <mxGeometry x="-560" y="-10" width="2752" height="1681" as="geometry" />
          </mxCell>
        </UserObject>
      </root>
    </mxGraphModel>
  </diagram>
</mxfile>
